<?xml version="1.0" encoding="UTF-8"?>
<svg width="100%" height="100%" viewBox="0 0 25 25" version="1.1" xmlns="http://www.w3.org/2000/svg" xmlns:xlink="http://www.w3.org/1999/xlink">
    <!-- Generator: Sketch 45.2 (43514) - http://www.bohemiancoding.com/sketch -->
    <title>calendar</title>
    <desc>Created with Sketch.</desc>
    <defs></defs>
    <g id="Page-1" stroke="none" stroke-width="1" fill="none" fill-rule="evenodd">
        <g id="Artboard-3" fill-rule="nonzero" fill="#FFFFFF">
            <g id="calendar">
                <path d="M22.2184854,1.62836453 L20.4266942,1.62836453 L20.4266942,0.957867652 C20.4266942,0.38317849 20.0683458,2.13162821e-14 19.5307741,2.13162821e-14 C18.9932024,2.13162821e-14 18.634854,0.383126108 18.634854,0.957867652 L18.634854,1.62836453 L16.5742769,1.62836453 L16.5742769,0.957867652 C16.5742769,0.38317849 16.2159285,2.13162821e-14 15.6783568,2.13162821e-14 C15.1407852,2.13162821e-14 14.7824367,0.383126108 14.7824367,0.957867652 L14.7824367,1.62836453 L11.9155512,1.62836453 L11.9155512,0.957867652 C11.9155512,0.38317849 11.5572028,2.13162821e-14 11.0196311,2.13162821e-14 C10.4821084,2.13162821e-14 10.123711,0.383126108 10.123711,0.957867652 L10.123711,1.62836453 L7.25682545,1.62836453 L7.25682545,0.957867652 C7.25682545,0.38317849 6.89847701,2.13162821e-14 6.36090535,2.13162821e-14 C5.82333369,2.13162821e-14 5.46498525,0.383126108 5.46498525,0.957867652 L5.46498525,1.62836453 L2.86688554,1.62836453 C1.34388016,1.62836453 0,3.06516601 0,4.69353054 L0,21.9348864 C0,23.6590062 1.34388016,25 2.86688554,25 L22.1288738,25 C23.7414908,25 24.9957593,23.5631985 24.9957593,21.9348864 L24.9957593,4.69347816 C25.0853709,3.06516601 23.7415398,1.62836453 22.2184854,1.62836453 Z M22.0832824,23 L2.91666909,23 C2.29557827,23 1.85185185,22.4292904 1.85185185,21.8585287 L1.85185185,8.44635821 L18.6226142,8.44635821 C19.1549986,8.44635821 19.50997,8.06588512 19.50997,7.49512347 C19.50997,6.92436182 19.1550471,6.54388874 18.6226142,6.54388874 L1.85185185,6.54388874 L1.85185185,4.64147128 C1.85185185,3.97566939 2.38423621,3.5 2.91666909,3.5 L5.40122648,3.5 L5.40122648,4.16585391 C5.40122648,4.73656354 5.75614939,5.11708865 6.28858227,5.11708865 C6.82101515,5.11708865 7.17593806,4.73661556 7.17593806,4.16585391 L7.17593806,3.5 L10.0154183,3.5 L10.0154183,4.16585391 C10.0154183,4.73656354 10.3703413,5.11708865 10.9027741,5.11708865 C11.435207,5.11708865 11.7901299,4.73661556 11.7901299,4.16585391 L11.7901299,3.5 L14.6296102,3.5 L14.6296102,4.16585391 C14.6296102,4.73656354 14.9845331,5.11708865 15.516966,5.11708865 C16.0493989,5.11708865 16.4043218,4.73661556 16.4043218,4.16585391 L16.4043218,3.5 L18.4452013,3.5 L18.4452013,4.16585391 C18.4452013,4.73656354 18.8001242,5.11708865 19.3325571,5.11708865 C19.86499,5.11708865 20.2199129,4.73661556 20.2199129,4.16585391 L20.2199129,3.5 L21.9945759,3.5 C22.6157153,3.5 23.0593932,4.07070963 23.0593932,4.64147128 L23.0593932,6.54388874 L21.639653,6.54388874 C21.1072687,6.54388874 20.7522972,6.92436182 20.7522972,7.49512347 C20.7522972,8.06588512 21.1072201,8.44635821 21.639653,8.44635821 L23.1481481,8.44635821 L23.1481481,21.8585287 C23.1480996,22.5243826 22.6157153,23 22.0832824,23 Z" id="Shape"></path>
                <path d="M20.4647403,10.5 L4.61464423,10.5 C4.0681098,10.5 3.7037037,10.8925083 3.7037037,11.4813245 L3.7037037,20.0186755 C3.7037037,20.607438 4.06805999,21 4.61464423,21 L20.3736264,21 C20.9201608,21 21.2845669,20.6074917 21.2845669,20.0186755 L21.2845669,11.4813245 C21.3756809,10.9907159 20.9202106,10.5 20.4647403,10.5 Z M5.52553493,12.5608028 L7.6207081,12.5608028 L7.6207081,14.8178062 L5.52553493,14.8178062 L5.52553493,12.5608028 Z M7.6207081,19.0374047 L5.52553493,19.0374047 L5.52553493,16.7804014 L7.6207081,16.7804014 L7.6207081,19.0374047 Z M11.6287268,19.0374047 L9.53355368,19.0374047 L9.53355368,16.7804014 L11.6287268,16.7804014 L11.6287268,19.0374047 Z M11.6287268,14.8178062 L9.53355368,14.8178062 L9.53355368,12.5608028 L11.6287268,12.5608028 L11.6287268,14.8178062 Z M15.5456814,19.0374047 L13.4505581,19.0374047 L13.4505581,16.7804014 L15.5456814,16.7804014 L15.5456814,19.0374047 Z M15.5456814,14.8178062 L13.4505581,14.8178062 L13.4505581,12.5608028 L15.5456814,12.5608028 L15.5456814,14.8178062 Z M19.4626858,19.0374047 L17.3675625,19.0374047 L17.3675625,16.7804014 L19.4626858,16.7804014 L19.4626858,19.0374047 Z M19.4626858,14.7195986 L17.3675625,14.7195986 L17.3675625,12.4625953 L19.4626858,12.4625953 L19.4626858,14.7195986 Z" id="Shape"></path>
            </g>
        </g>
    </g>
</svg>