<?xml version="1.0" encoding="UTF-8"?>
<svg width="32px" height="28px" viewBox="0 0 32 28" version="1.1" xmlns="http://www.w3.org/2000/svg" xmlns:xlink="http://www.w3.org/1999/xlink">
    <!-- Generator: Sketch 44.1 (41455) - http://www.bohemiancoding.com/sketch -->
    <title>exchange_icon</title>
    <desc>Created with Sketch.</desc>
    <defs></defs>
    <g id="Page-1" stroke="none" stroke-width="1" fill="none" fill-rule="evenodd">
        <g id="Prizes-Page" transform="translate(-1829.000000, -51.000000)" fill-rule="nonzero" fill="#000000">
            <g id="body">
                <g id="sidebar" transform="translate(1770.000000, 0.000000)">
                    <g id="פרופיל">
                        <g id="Group-16" transform="translate(35.000000, 25.000000)">
                            <g id="exchange_icon" transform="translate(24.000000, 26.000000)">
                                <path d="M31.9594648,21.7930145 C31.9527794,21.7797013 31.9461564,21.7663257 31.9461564,21.7530125 L29.820115,16.4194439 C29.7534478,16.2527484 29.6201758,16.1127417 29.446916,16.0461135 C29.2802791,15.9794228 29.0870254,15.9861106 28.9203885,16.0594267 L23.715283,18.4262278 C23.3753863,18.5662345 23.2154349,18.9595659 23.3553924,19.2995822 C23.4953499,19.6395986 23.8885429,19.7996062 24.2284396,19.6595995 C24.241748,19.6529117 24.2551189,19.6462864 24.2684274,19.6395986 L27.9140069,17.9795189 C26.1612271,23.1864564 21.3093268,26.6666235 15.7377077,26.6666235 C9.89279667,26.6666235 4.78103782,22.7597484 3.30817297,17.1661673 C3.21488882,16.8128378 2.84831274,16.5994526 2.49510759,16.6928321 C2.14190244,16.786149 1.92859228,17.1528542 2.02193891,17.5061836 C3.64144668,23.6864804 9.28641847,28 15.7377702,28 C21.889213,28 27.234276,24.1598156 29.1736865,18.4128522 L30.7065331,22.2463487 C30.8331821,22.5930529 31.2130667,22.7730615 31.5595864,22.6463679 C31.906106,22.5197369 32.0860513,22.1397186 31.9594648,21.7930145 Z" id="Shape"></path>
                                <path d="M2.56459111,11.9515422 C2.73119868,12.0182198 2.92441849,12.0182198 3.09102606,11.9382317 L8.29521694,9.57189468 C8.62836961,9.41191837 8.76830248,9.01197761 8.6083792,8.67871448 C8.45514022,8.35876187 8.07532243,8.21209609 7.74879158,8.35876187 L4.10385267,10.018516 C5.84301834,4.81259964 10.6873818,1.33311503 16.2647062,1.33311503 C22.1085902,1.33311503 27.2194508,5.23922395 28.6920569,10.8317081 C28.7853246,11.1849682 29.1518363,11.3983116 29.5049794,11.3049505 C29.8581225,11.2116518 30.0713952,10.8450186 29.9780649,10.4917584 C28.3521575,4.3193602 22.7148619,0 16.2646437,0 C10.1142818,0 4.76347373,3.83943129 2.83108826,9.5852677 L1.29851099,5.75252292 C1.18525282,5.40588676 0.805435035,5.21260289 0.458913773,5.32589861 C0.112392511,5.43919433 -0.0808272952,5.81913805 0.032430871,6.1657742 C0.0391151644,6.19245775 0.052421281,6.21907881 0.0657273976,6.24576235 L2.19139514,11.578285 C2.25805067,11.7449478 2.39129924,11.8849271 2.56459111,11.9515422 Z" id="Shape"></path>
                            </g>
                        </g>
                    </g>
                </g>
            </g>
        </g>
    </g>
</svg>