<?xml version="1.0" encoding="UTF-8"?>
<svg width="69px" height="54px" viewBox="0 0 69 54" version="1.1" xmlns="http://www.w3.org/2000/svg" xmlns:xlink="http://www.w3.org/1999/xlink">
    <!-- Generator: Sketch 45.2 (43514) - http://www.bohemiancoding.com/sketch -->
    <title>picture_icon</title>
    <desc>Created with Sketch.</desc>
    <defs></defs>
    <g id="Page-1" stroke="none" stroke-width="1" fill="none" fill-rule="evenodd">
        <g id="Add-new-prize-Page" transform="translate(-414.000000, -768.000000)" fill-rule="nonzero" fill="#9E339A">
            <g id="picture_icon" transform="translate(414.771919, 768.375642)">
                <path d="M66.0898858,0 L1.15947168,0 C0.519443313,0 0,0.518283841 0,1.15947168 L0,52.1762256 C0,52.8174135 0.519443313,53.3356973 1.15947168,53.3356973 L66.0898858,53.3356973 C66.7299142,53.3356973 67.2493575,52.8174135 67.2493575,52.1762256 L67.2493575,1.15947168 C67.2493575,0.518283841 66.7299142,0 66.0898858,0 Z M64.9304141,51.0167539 L2.31894336,51.0167539 L2.31894336,2.31894336 L64.9304141,2.31894336 L64.9304141,51.0167539 Z" id="Shape"></path>
                <path d="M18.5515469,25.6683841 C22.1122844,25.6683841 25.0086447,22.7720238 25.0086447,19.2124457 C25.0086447,15.6505487 22.1122844,12.7541885 18.5515469,12.7541885 C14.9908094,12.7541885 12.0944491,15.6505487 12.0944491,19.2112863 C12.0944491,22.7720238 14.9908094,25.6683841 18.5515469,25.6683841 Z M18.5515469,15.0731318 C20.8333872,15.0731318 22.6897013,16.9306055 22.6897013,19.2112863 C22.6897013,21.4919671 20.8333872,23.3494407 18.5515469,23.3494407 C16.2697066,23.3494407 14.4133925,21.4931265 14.4133925,19.2124457 C14.4133925,16.9317649 16.2697066,15.0731318 18.5515469,15.0731318 Z" id="Shape"></path>
                <path d="M8.11630176,46.3788672 C8.38761814,46.3788672 8.66125345,46.2837905 8.88155307,46.0901588 L27.7960146,29.4378265 L39.7408918,41.3815443 C40.1942453,41.8348977 40.9270314,41.8348977 41.3803848,41.3815443 C41.8337382,40.9281908 41.8337382,40.1954047 41.3803848,39.7420513 L35.8068044,34.1684709 L46.4519139,22.5111427 L59.5087245,34.4803688 C59.9806295,34.9128518 60.7145751,34.8803866 61.147058,34.4084816 C61.5795409,33.9365766 61.5482352,33.202631 61.0751708,32.7701481 L47.1615106,20.0159596 C46.9342542,19.8084142 46.631632,19.7052212 46.326691,19.712178 C46.019431,19.7260917 45.7295631,19.8617499 45.5220176,20.0890063 L34.166152,32.5266591 L28.6667778,27.0272849 C28.2331354,26.5948019 27.5397714,26.572772 27.0806206,26.9762681 L7.34989098,44.3486323 C6.86871023,44.7718395 6.82233137,45.5046256 7.24553853,45.9858063 C7.47511392,46.2466874 7.79512811,46.3788672 8.11630176,46.3788672 Z" id="Shape"></path>
            </g>
        </g>
    </g>
</svg>