<?xml version="1.0" encoding="UTF-8"?>
<svg width="53px" height="41px" viewBox="0 0 53 41" version="1.1" xmlns="http://www.w3.org/2000/svg" xmlns:xlink="http://www.w3.org/1999/xlink">
    <!-- Generator: Sketch 45.2 (43514) - http://www.bohemiancoding.com/sketch -->
    <title>v_icon</title>
    <desc>Created with Sketch.</desc>
    <defs></defs>
    <g id="Page-1" stroke="none" stroke-width="1" fill="none" fill-rule="evenodd">
        <g id="Add-new-prize-Page" transform="translate(-440.000000, -928.000000)" fill="#FFFFFF">
            <g id="Group-12" transform="translate(102.793763, 905.375642)">
                <g id="Page-1" transform="translate(337.355295, 22.126391)">
                    <path d="M23.8196558,39.045772 C21.4610142,41.4795452 17.6364984,41.4795452 15.28014,39.045772 L2.05074048,25.3949665 C0.915943869,24.2263784 0.281188418,22.6407739 0.281188418,20.9892008 C0.281188418,19.3352717 0.915943869,17.7520232 2.05074048,16.5834351 C3.1832538,15.412491 4.71762669,14.7575162 6.32049837,14.7575162 C7.92108675,14.7575162 9.45545964,15.414847 10.5856897,16.5834351 L18.4699004,24.7187875 C18.7575953,25.0132905 19.1457551,25.1805683 19.5476146,25.1805683 C19.9540408,25.1805683 20.3422006,25.0156465 20.6298955,24.7187875 L41.9741184,2.69467114 C43.108915,1.52608302 44.6455712,0.868752208 46.2461595,0.871108232 C47.8444646,0.871108232 49.3834041,1.52608302 50.5159174,2.69702716 C52.8699925,5.12608834 52.8699925,9.07007323 50.5136341,11.5038465 L23.8196558,39.045772 Z" id="v_icon"></path>
                </g>
            </g>
        </g>
    </g>
</svg>