<?xml version="1.0" encoding="UTF-8"?>
<svg width="79px" height="53px" viewBox="0 0 79 53" version="1.1" xmlns="http://www.w3.org/2000/svg" xmlns:xlink="http://www.w3.org/1999/xlink">
    <!-- Generator: Sketch 44.1 (41455) - http://www.bohemiancoding.com/sketch -->
    <title>unselected_strawberry</title>
    <desc>Created with Sketch.</desc>
    <defs></defs>
    <g id="Page-1" stroke="none" stroke-width="1" fill="none" fill-rule="evenodd">
        <g id="Prizes-Page" transform="translate(-1805.000000, -422.000000)">
            <g id="body">
                <g id="sidebar" transform="translate(1770.000000, 0.000000)">
                    <g id="פירות" transform="translate(0.000000, 360.000000)">
                        <g id="unselected_strawberry" transform="translate(35.000000, 64.000000)">
                            <g id="Group-34">
                                <path d="M39.4935367,18.2583703 C41.2452348,30.5233049 34.9122235,48.9382934 24.0774012,50.4905732 C13.2425789,52.0435166 2.00958323,36.1450927 0.258547685,23.8808218 C-1.49315038,11.6158872 5.84026333,6.66305963 16.6750856,5.11011624 C27.5092454,3.55783649 37.7418386,5.99343575 39.4935367,18.2583703" id="Fill-4" fill="#FFFFFF"></path>
                                <path d="M10.6054858,6.44585351 C10.11526,6.59252393 10.1962778,7.45938129 10.703549,7.51186629 L14.9069456,7.94540677 C15.2621718,7.98279335 15.4448986,8.41202 15.2348992,8.71614542 L14.3151292,12.745268 C14.0083119,13.189593 14.5258104,13.7453589 14.9526273,13.4304489 L18.380799,8.41202 C18.5628439,8.27757212 18.8096613,8.2991413 18.9685245,8.46306706 L22.5371503,12.1499586 C22.8276039,12.4504892 23.3185116,12.2355164 23.3212388,11.8062897 L23.3491933,7.73546677 C23.3505569,7.5298406 23.4746475,7.34794053 23.6587378,7.27963813 L27.9978159,5.67992407 C28.4634963,5.50808961 28.383042,4.789117 27.8921344,4.73663199 L21.5676077,4.06079774 C21.5307896,4.0564839 21.4932897,4.05720287 21.4557898,4.06295465 L16.49285,4.81140515 C16.4730773,4.81500001 16.4526229,4.81931385 16.4328502,4.82506563 L10.6054858,6.44585351 Z" id="Fill-6" fill="#812A7E"></path>
                                <path d="M18.5755774,5.00474199 C18.5755774,5.00474199 18.2448147,0.697140828 12.0327221,0.102450713" id="Stroke-8" stroke="#FFFFFF" stroke-width="3" stroke-linecap="round"></path>
                                <path d="M32.6287196,17.1344996 C32.7576567,17.8755466 32.523709,18.5396017 32.1069897,18.6172811 C31.6896059,18.6949604 31.2476309,18.1567045 31.1186938,17.4149701 C30.9897568,16.6739231 30.9432331,14.3992249 31.360617,14.3215456 C31.7773362,14.2445537 32.4997825,16.3934526 32.6287196,17.1344996" id="Fill-10" fill="#9E339A"></path>
                                <path d="M25.1649253,19.0380555 C25.2938624,19.7791026 25.0599147,20.4431577 24.6431955,20.520837 C24.2258116,20.5985163 23.7838366,20.0602605 23.6548995,19.318526 C23.5259625,18.577479 23.4794388,16.3027809 23.8968227,16.2251015 C24.313542,16.1481096 25.0359883,18.2970085 25.1649253,19.0380555" id="Fill-12" fill="#9E339A"></path>
                                <path d="M16.8544001,20.0747652 C16.4370162,20.1524445 15.9950412,19.6141887 15.8661041,18.8731416 C15.7371671,18.1314072 15.6906434,15.856709 16.1080273,15.7790297 C16.5247465,15.7020378 17.2471929,17.8509367 17.3761299,18.5919837 C17.505067,19.3337182 17.2711193,19.9970859 16.8544001,20.0747652 Z" id="Fill-14" fill="#9E339A"></path>
                                <path d="M10.0206694,21.278726 C10.1496064,22.0204605 9.91565876,22.6838282 9.4989395,22.7615075 C9.08155561,22.8391868 8.63958063,22.300931 8.51064357,21.5598839 C8.38170651,20.8181495 8.33518283,18.5434513 8.75256672,18.465772 C9.16928598,18.3887801 9.8917323,20.537679 10.0206694,21.278726" id="Fill-16" fill="#9E339A"></path>
                                <path d="M30.4321372,24.8418011 C30.5610743,25.5828481 30.3271266,26.2469032 29.9104073,26.3245826 C29.4930235,26.4022619 29.0510485,25.864006 28.9221114,25.1222716 C28.7931744,24.3812246 28.7466507,22.1065264 29.1640346,22.0288471 C29.5807538,21.9518552 30.3032001,24.1007541 30.4321372,24.8418011" id="Fill-18" fill="#9E339A"></path>
                                <path d="M23.0766102,27.5285434 C23.2055472,28.2695904 22.9715996,28.9336455 22.5548803,29.0113248 C22.1381611,29.0890042 21.6955215,28.5507483 21.5665844,27.8090139 C21.4376473,27.0679668 21.3911237,24.7932687 21.8085075,24.7155894 C22.2252268,24.6385975 22.9476731,26.7874964 23.0766102,27.5285434" id="Fill-20" fill="#9E339A"></path>
                                <path d="M27.7292442,33.233918 C27.8581813,33.974965 27.6242336,34.6390202 27.2075144,34.7166995 C26.7901305,34.7943788 26.3481555,34.256123 26.2192184,33.5143885 C26.0902814,32.7733415 26.0437577,30.4986433 26.4611416,30.420964 C26.8778608,30.3439721 27.6003072,32.492871 27.7292442,33.233918" id="Fill-22" fill="#9E339A"></path>
                                <path d="M25.2429522,43.1924076 C25.3718893,43.9334547 25.1379416,44.5975098 24.7212223,44.6751891 C24.3038384,44.7528684 23.8618635,44.2146126 23.7329264,43.4728781 C23.6039893,42.7318311 23.5574657,40.457133 23.9748496,40.3794536 C24.3915688,40.3024617 25.1140151,42.4513606 25.2429522,43.1924076" id="Fill-24" fill="#9E339A"></path>
                                <path d="M20.3737172,35.9206603 C20.5026543,36.6617073 20.2687066,37.3257625 19.8519873,37.4034418 C19.4352681,37.4811211 18.9926285,36.9428653 18.8636914,36.2011308 C18.7347543,35.4600838 18.6882307,33.1853856 19.1056146,33.1077063 C19.5223338,33.0307144 20.2447801,35.1796133 20.3737172,35.9206603" id="Fill-26" fill="#9E339A"></path>
                                <path d="M11.8877312,34.778568 C12.0166682,35.519615 11.7827206,36.1836701 11.3660013,36.2613495 C10.9486174,36.3390288 10.5066424,35.8007729 10.3777054,35.0590385 C10.2487683,34.3179915 10.2022446,32.0432933 10.6196285,31.965614 C11.0363478,31.8886221 11.7587941,34.037521 11.8877312,34.778568" id="Fill-28" fill="#9E339A"></path>
                                <path d="M34.6075047,31.4170467 C34.7364418,32.1580937 34.5024941,32.8221489 34.0857749,32.8998282 C33.668391,32.9775075 33.226416,32.4392516 33.0974789,31.6975172 C32.9685419,30.9564702 32.9220182,28.681772 33.3394021,28.6040927 C33.7561213,28.5271008 34.4785677,30.6759997 34.6075047,31.4170467" id="Fill-30" fill="#9E339A"></path>
                                <path d="M15.2878148,27.0824716 C15.4167518,27.824206 15.1828042,28.4875737 14.7660849,28.565253 C14.3493656,28.6429324 13.906726,28.1046765 13.777789,27.3636295 C13.6488519,26.621895 13.6023282,24.3471969 14.0197121,24.2695176 C14.4364314,24.1925257 15.1588777,26.3414245 15.2878148,27.0824716" id="Fill-32" fill="#9E339A"></path>
                            </g>
                            <g id="Group-68" transform="translate(37.742768, 8.064966)">
                                <path d="M36.4206655,32.857805 C28.2079064,41.2052392 10.9310049,46.7878392 3.78961973,39.2715051 C-3.35176542,31.755171 2.34672097,13.9851659 10.5594801,5.63773177 C18.7715745,-2.70901494 26.5264077,0.15480871 33.6671282,7.6711428 C40.8085133,15.1881643 44.63276,24.5103709 36.4206655,32.857805 L26.5854948,28.813541" id="Fill-38" fill="#FFFFFF"></path>
                                <path d="M29.1228279,3.32659996 C28.7586139,3.03375577 28.2727737,3.47852147 28.5087153,3.88822836 L30.4627099,7.2834336 C30.6275367,7.57009093 30.4294787,7.9344276 30.1064714,7.93580245 L26.829875,9.36221486 C26.3579919,9.36496457 26.2523167,10.0475802 26.6982794,10.2029389 L32.0033084,10.1465698 C32.1940555,10.2125629 32.3116939,10.4098546 32.2837797,10.6160829 L31.650393,15.243846 C31.5985524,15.6212437 32.0099546,15.8776543 32.3083708,15.6542403 L35.1356814,13.5342134 C35.277911,13.4269746 35.4706519,13.4249124 35.6162046,13.5273391 L39.0483231,15.9553336 C39.4165248,16.2158687 39.870463,15.7772898 39.6431616,15.3792692 L36.7188159,10.2586205 C36.7015356,10.2283737 36.6809323,10.2008766 36.6570058,10.1761292 L33.4787737,6.83041877 C33.4654813,6.81667021 33.4515241,6.80360909 33.4369024,6.79192282 L29.1228279,3.32659996 Z" id="Fill-40" fill="#812A7E"></path>
                                <path d="M34.0075585,10.7515749 C34.0075585,10.7515749 39.3198983,6.33760187 36.877405,1.26507313" id="Stroke-42" stroke="#FFFFFF" stroke-width="3" stroke-linecap="round" stroke-linejoin="round"></path>
                                <path d="M32.7704174,26.631154 C32.3058453,27.1384756 31.6977143,27.3233936 31.4119259,27.0436106 C31.1268022,26.7638275 31.2716903,26.1258946 31.7369271,25.618573 C32.2014993,25.110564 33.8191942,23.8236994 34.1049825,24.1034825 C34.3901062,24.3832655 33.2349896,26.1238324 32.7704174,26.631154" id="Fill-44" fill="#9E339A"></path>
                                <path d="M27.2889308,21.9091446 C26.8243586,22.4164662 26.2162276,22.6013843 25.9304393,22.3216012 C25.6453156,22.0418181 25.7908682,21.4038853 26.2554404,20.8965637 C26.7200126,20.3885546 28.3377075,19.10169 28.6234958,19.3814731 C28.9086195,19.6612561 27.753503,21.401823 27.2889308,21.9091446" id="Fill-46" fill="#9E339A"></path>
                                <path d="M23.326243,15.6433789 C22.8616708,16.1507005 22.2535398,16.3356186 21.9677515,16.0558355 C21.6826278,15.7760525 21.8275158,15.1381196 22.2927526,14.630798 C22.7573248,14.1227889 24.3750197,12.8359243 24.660808,13.1157074 C24.9459317,13.3954905 23.7908152,15.1360573 23.326243,15.6433789" id="Fill-48" fill="#9E339A"></path>
                                <path d="M17.3384457,11.4359779 C16.8738735,11.9432995 16.2657426,12.1282176 15.9799542,11.8484345 C15.6948305,11.5686514 15.8397186,10.9307186 16.3049554,10.4233969 C16.7695276,9.9153879 18.3878871,8.62852331 18.6730108,8.90830637 C18.9581345,9.18808943 17.8030179,10.9286563 17.3384457,11.4359779" id="Fill-50" fill="#9E339A"></path>
                                <path d="M25.9932463,29.1733302 C25.5286741,29.6806518 24.9205431,29.8655699 24.6347547,29.5857868 C24.349631,29.3060038 24.4945191,28.6680709 24.9597559,28.1607493 C25.4243281,27.6527402 27.042023,26.3658756 27.3278113,26.6456587 C27.612935,26.9254418 26.4578185,28.6660086 25.9932463,29.1733302" id="Fill-52" fill="#9E339A"></path>
                                <path d="M20.005449,24.9659292 C19.5408768,25.4732508 18.9327458,25.6581689 18.6469575,25.3783858 C18.3618338,25.0986027 18.5067218,24.4606699 18.9719587,23.9533482 C19.4365309,23.4453392 21.0542257,22.1584746 21.3400141,22.4382577 C21.6251378,22.7180407 20.4700212,24.4586076 20.005449,24.9659292" id="Fill-54" fill="#9E339A"></path>
                                <path d="M18.442785,31.700933 C17.9782128,32.2082546 17.3700818,32.3931727 17.0842935,32.1133896 C16.7991698,31.8336065 16.9447225,31.1956737 17.4092947,30.6883521 C17.8738668,30.180343 19.4915617,28.8934784 19.7773501,29.1732615 C20.0624738,29.4530445 18.9073572,31.1936114 18.442785,31.700933" id="Fill-56" fill="#9E339A"></path>
                                <path d="M9.8797026,35.2577525 C9.41513041,35.7650741 8.80699943,35.9499921 8.5212111,35.6702091 C8.23608739,35.390426 8.38097543,34.7524932 8.84621224,34.2451715 C9.31078444,33.7371625 10.9291439,32.4502979 11.2142676,32.730081 C11.4993914,33.009864 10.3442748,34.7504309 9.8797026,35.2577525" id="Fill-58" fill="#9E339A"></path>
                                <path d="M12.4549878,27.493532 C11.9904156,28.0008536 11.3822846,28.1857716 11.0964963,27.9059886 C10.8113726,27.6262055 10.9562606,26.9882726 11.4214974,26.480951 C11.8860696,25.9736294 13.5037645,24.6860774 13.7895528,24.9658605 C14.0746765,25.2456435 12.91956,26.9862104 12.4549878,27.493532" id="Fill-60" fill="#9E339A"></path>
                                <path d="M8.61166643,20.3059258 C8.14709423,20.8132474 7.53896325,20.9981655 7.25317492,20.7183824 C6.96805121,20.4385993 7.11360387,19.8006665 7.57817607,19.2933449 C8.04274826,18.7853358 9.66110776,17.4984712 9.94623147,17.7782543 C10.2313552,18.0580373 9.07623862,19.7986042 8.61166643,20.3059258" id="Fill-62" fill="#9E339A"></path>
                                <path d="M23.5395208,36.0179787 C23.0749486,36.5253004 22.4668176,36.7102184 22.1810293,36.4304353 C21.8959056,36.1506523 22.0407936,35.5127194 22.5060305,35.0053978 C22.9706027,34.4973887 24.5889622,33.2105242 24.8740859,33.4903072 C25.1592096,33.7700903 24.004093,35.5106571 23.5395208,36.0179787" id="Fill-64" fill="#9E339A"></path>
                                <path d="M16.0428277,18.7001635 C15.5782555,19.2074851 14.9701245,19.3924032 14.6843361,19.1126201 C14.3992124,18.8328371 14.5447651,18.1949042 15.0093373,17.6875826 C15.4739095,17.1795735 17.0916044,15.8927089 17.3773927,16.172492 C17.6625164,16.4522751 16.5073999,18.1928419 16.0428277,18.7001635" id="Fill-66" fill="#9E339A"></path>
                            </g>
                        </g>
                    </g>
                </g>
            </g>
        </g>
    </g>
</svg>