<?xml version="1.0" encoding="UTF-8"?>
<svg width="54px" height="54px" viewBox="0 0 54 54" version="1.1" xmlns="http://www.w3.org/2000/svg" xmlns:xlink="http://www.w3.org/1999/xlink">
    <!-- Generator: Sketch 44.1 (41455) - http://www.bohemiancoding.com/sketch -->
    <title>selected_chart</title>
    <desc>Created with Sketch.</desc>
    <defs></defs>
    <g id="Page-1" stroke="none" stroke-width="1" fill="none" fill-rule="evenodd">
        <g id="סטטיסטיקות" transform="translate(-1818.000000, -603.000000)" fill-rule="nonzero">
            <g id="sidebar" transform="translate(1770.000000, 0.000000)">
                <g id="סטטיסטיקות" transform="translate(0.000000, 540.000000)">
                    <g id="selected_chart" transform="translate(48.000000, 63.000000)">
                        <path d="M12.9078014,24 L1.09219858,24 C0.485421592,24 0,24.4929052 0,25.1090366 L0,52.8909634 C0,53.5070948 0.485421592,54 1.09219858,54 L12.9078014,54 C13.5145784,54 14,53.5070948 14,52.8909634 L14,25.1090366 C14,24.4929052 13.5145784,24 12.9078014,24 Z" id="Shape" fill="#F96B3D"></path>
                        <path d="M32.9069388,-5.68434189e-14 L21.0930612,-5.68434189e-14 C20.4869388,-5.68434189e-14 20.0020408,0.489392379 20.0020408,1.10113285 L20.0020408,52.8988671 C20.0020408,53.5106076 20.4869388,54 21.0930612,54 L32.9069388,54 C33.5130612,54 33.9979592,53.5106076 33.9979592,52.8988671 L33.9979592,1.10113285 C33.9979592,0.500514933 33.5130612,-5.68434189e-14 32.9069388,-5.68434189e-14 Z" id="Shape" fill="#F44F53"></path>
                        <path d="M52.9078014,54 C53.5145784,54 54,53.4747836 54,52.8182632 L54,15.1817368 C54,14.5252164 53.5145784,14 52.9078014,14 L41.0921986,14 C40.4854216,14 40,14.5252164 40,15.1817368 L40,52.8063265 C40,53.4628469 40.4854216,53.9880633 41.0921986,53.9880633 L52.9078014,53.9880633 L52.9078014,54 Z" id="Shape" fill="#00BBD3"></path>
                    </g>
                </g>
            </g>
        </g>
    </g>
</svg>