<?xml version="1.0" encoding="UTF-8"?>
<svg width="52px" height="42px" viewBox="0 0 52 42" version="1.1" xmlns="http://www.w3.org/2000/svg" xmlns:xlink="http://www.w3.org/1999/xlink">
    <!-- Generator: Sketch 44.1 (41455) - http://www.bohemiancoding.com/sketch -->
    <title>camera-icon</title>
    <desc>Created with Sketch.</desc>
    <defs></defs>
    <g id="Page-1" stroke="none" stroke-width="1" fill="none" fill-rule="evenodd">
        <g id="Sign-Up-Page" transform="translate(-1752.000000, -114.000000)" fill-rule="nonzero" fill="#9C9D9E">
            <g id="camera-icon" transform="translate(1752.309356, 114.785344)">
                <path d="M25.5,15.375 C21.27465,15.375 17.85,18.817975 17.85,23.0625 C17.85,27.3085625 21.27465,30.75 25.5,30.75 C29.72433,30.75 33.15,27.3085625 33.15,23.0625 C33.15,18.817975 29.72433,15.375 25.5,15.375 Z M45.9,7.6875 L39.78,7.6875 C38.9385,7.6875 38.03172,7.0315 37.76601,6.228925 L36.18399,1.4580625 C35.91726,0.656 35.0115,0 34.17,0 L16.83,0 C15.9885,0 15.08172,0.656 14.81601,1.458575 L13.23399,6.2294375 C12.96726,7.0315 12.0615,7.6875 11.22,7.6875 L5.1,7.6875 C2.295,7.6875 0,9.99375 0,12.8125 L0,35.875 C0,38.69375 2.295,41 5.1,41 L45.9,41 C48.705,41 51,38.69375 51,35.875 L51,12.8125 C51,9.99375 48.705,7.6875 45.9,7.6875 Z M25.5,35.875 C18.45843,35.875 12.75,30.1385875 12.75,23.0625 C12.75,15.986925 18.45843,10.25 25.5,10.25 C32.54055,10.25 38.25,15.986925 38.25,23.0625 C38.25,30.1385875 32.54055,35.875 25.5,35.875 Z M44.115,16.3964125 C43.12968,16.3964125 42.33,15.5938375 42.33,14.6026625 C42.33,13.6125125 43.12968,12.8089125 44.115,12.8089125 C45.10134,12.8089125 45.9,13.6125125 45.9,14.6026625 C45.9,15.5938375 45.10083,16.3964125 44.115,16.3964125 Z" id="Shape"></path>
            </g>
        </g>
    </g>
</svg>