<?xml version="1.0" encoding="UTF-8"?>
<svg width="565px" height="1080px" viewBox="0 0 565 1080" version="1.1" xmlns="http://www.w3.org/2000/svg" xmlns:xlink="http://www.w3.org/1999/xlink">
    <!-- Generator: Sketch 44.1 (41455) - http://www.bohemiancoding.com/sketch -->
    <title>fruit_background</title>
    <desc>Created with Sketch.</desc>
    <defs>
        <rect id="path-1" x="0" y="0" width="565" height="1091"></rect>
        <path d="M3.26704725,0.0982798373 C3.61456219,0.100855643 3.93995627,0.117737096 4.27547624,0.127997523 C4.61199478,0.117737096 4.93654635,0.100855643 5.28392352,0.0982798373 L5.37277987,0.0982798373 L5.37277987,0.170292357 C25.0105069,1.42912017 16.6556176,20.3883359 39.949218,56.9978536 C53.5988953,78.4524645 46.9814936,120.874183 4.91999318,121.737888 L4.91999318,121.77829 L4.8401493,121.77829 C4.64972433,121.774704 4.46761153,121.759877 4.27547624,121.757922 C4.08334095,121.759877 3.90206335,121.774704 3.71110864,121.77829 L3.6309593,121.77829 L3.6309593,121.737888 C2.52312656,121.715139 1.4398818,121.663561 0.380947736,121.584297 L0.380947736,0.501575816 C1.24566268,0.345001101 2.17542418,0.234571059 3.17817261,0.170292357 L3.17817261,0.0982798373 L3.26704725,0.0982798373 L3.26704725,0.0982798373 Z" id="path-3"></path>
        <polygon id="path-5" points="36.3891014 0.0111302194 0.370895126 0.0111302194 0.370895126 23.4718446 36.3891014 23.4718446 36.3891014 0.0111302194"></polygon>
        <polygon id="path-7" points="36.3895347 0.0111302194 0.371328415 0.0111302194 0.371328415 15.0175598 36.3895347 15.0175598 36.3895347 0.0111302194"></polygon>
        <polygon id="path-9" points="0 148.08965 105.623869 148.08965 105.623869 0.478653258 0 0.478653258"></polygon>
        <polygon id="path-11" points="132.029836 143.032322 132.029836 0 1.13188344e-19 0 0 143.032322 132.029836 143.032322"></polygon>
        <polygon id="path-13" points="134.440892 0 0 0 1.11676681e-14 109.428633 134.440892 109.428633 134.440892 3.03330904e-14"></polygon>
        <polygon id="path-15" points="177.644361 0 0 0 1.4756472e-14 144.594248 177.644361 144.594248 177.644361 4.00808293e-14"></polygon>
    </defs>
    <g id="Page-1" stroke="none" stroke-width="1" fill="none" fill-rule="evenodd">
        <g id="fruit_background">
            <mask id="mask-2" fill="white">
                <use xlink:href="#path-1"></use>
            </mask>
            <use id="Mask" fill="#9E339A" xlink:href="#path-1"></use>
            <g id="pear" mask="url(#mask-2)">
                <g transform="translate(42.800461, 762.430593) rotate(-330.000000) translate(-42.800461, -762.430593) translate(-32.199539, 689.430593)">
                    <g id="Group-6" transform="translate(5.125713, 23.475352)">
                        <path d="M77.8614376,56.9981875 C54.5689204,20.3886698 62.9238097,1.42945408 43.2860826,0.170626263 L43.2860826,0.0982798373 C42.9037054,0.0982798373 42.5527415,0.11720121 42.188779,0.12833143 C41.8237333,0.11720121 41.4727694,0.0982798373 41.0903922,0.0982798373 L41.0903922,0.170626263 C21.4526651,1.42945408 29.8075544,20.3886698 6.5150372,56.9981875 C-7.13464004,78.4527984 -0.518321606,120.873404 41.5442621,121.738222 L41.5442621,121.77829 C41.7641561,121.77829 41.9699682,121.760482 42.188779,121.758256 C42.4075898,121.760482 42.6123187,121.77829 42.8322127,121.77829 L42.8332959,121.738222 C84.8947964,120.873404 91.5111148,78.4527984 77.8614376,56.9981875" id="Fill-4" fill="#DED44F"></path>
                    </g>
                    <g id="Group-9" transform="translate(42.245648, 23.475352)">
                        <mask id="mask-4" fill="white">
                            <use xlink:href="#path-3"></use>
                        </mask>
                        <g id="Clip-8"></g>
                        <path d="M78.1308348,56.9981875 C54.8383176,20.3886698 63.1932069,1.42945408 43.5554799,0.170626263 L43.5554799,0.0982798373 C43.1731026,0.0982798373 42.8221388,0.11720121 42.4581763,0.12833143 C42.0931305,0.11720121 41.7421667,0.0982798373 41.3597894,0.0982798373 L41.3597894,0.170626263 C21.7220623,1.42945408 30.0769517,20.3886698 6.78443445,56.9981875 C-6.86524279,78.4527984 -0.248924358,120.873404 41.8136593,121.738222 L41.8136593,121.77829 C42.0335533,121.77829 42.2393655,121.760482 42.4581763,121.758256 C42.676987,121.760482 42.881716,121.77829 43.10161,121.77829 L43.10161,121.738222 C85.1641936,120.873404 91.7805121,78.4527984 78.1308348,56.9981875" id="Fill-7" fill="#DED44F" mask="url(#mask-4)"></path>
                    </g>
                    <g id="Group-32" transform="translate(0.000000, 0.101892)">
                        <path d="M40.5095687,8.73443968 C40.5095687,8.73443968 48.6261492,15.5917679 47.8104832,29.6470089" id="Stroke-10" stroke="#50BB75" stroke-width="3" stroke-linecap="round" stroke-linejoin="round"></path>
                        <g id="Group-14">
                            <mask id="mask-6" fill="white">
                                <use xlink:href="#path-5"></use>
                            </mask>
                            <g id="Clip-13"></g>
                            <path d="M0.370895126,8.29067783 C0.370895126,8.29067783 12.7575358,37.3861844 36.3891014,15.0177824 C36.3891014,15.0177824 24.3339266,-13.6770362 0.370895126,8.29067783" id="Fill-12" fill="#50BB75" mask="url(#mask-6)"></path>
                        </g>
                        <g id="Group-17">
                            <mask id="mask-8" fill="white">
                                <use xlink:href="#path-7"></use>
                            </mask>
                            <g id="Clip-16"></g>
                            <path d="M36.3895347,15.0175598 C36.3895347,15.0175598 24.3332767,-13.6772588 0.371328415,8.29045523 L36.3895347,15.0175598 Z" id="Fill-15" fill="#50BB75" mask="url(#mask-8)"></path>
                        </g>
                        <path d="M35.5986745,14.8698618 C35.5986745,14.8698618 42.2366574,14.2821862 45.9542744,21.4979075" id="Stroke-18" stroke="#50BB75" stroke-linecap="round" stroke-linejoin="round"></path>
                        <path d="M114.529685,9.59124397 C114.529685,9.59124397 107.864622,15.222022 108.534053,26.7640595" id="Stroke-20" stroke="#50BB75" stroke-width="3" stroke-linecap="round" stroke-linejoin="round"></path>
                        <path d="M143.492002,80.1045864 C120.199485,43.6668969 128.554374,24.7966669 108.916647,23.5437475 L108.916647,23.4717406 C108.53427,23.4717406 108.183306,23.4905732 107.819343,23.5016511 C107.454297,23.4905732 107.103334,23.4717406 106.720956,23.4717406 L106.720956,23.5437475 C87.0832293,24.7966669 95.4381186,43.6668969 72.1456014,80.1045864 C58.4959242,101.458499 65.1122426,143.680002 107.174826,144.540761 L107.174826,144.580642 C107.395804,144.580642 107.600532,144.562917 107.819343,144.560701 C108.038154,144.562917 108.242883,144.580642 108.46386,144.580642 L108.46386,144.540761 C150.526444,143.680002 157.141679,101.458499 143.492002,80.1045864" id="Fill-22" fill="#FFF9D7"></path>
                        <path d="M108.416647,23.9810132 C108.341001,23.9834903 108.255474,23.9865412 108.1552,23.9902553 L108.154102,23.9902959 C107.995972,23.9961536 107.924484,23.9986825 107.804177,24.0014211 C107.713903,23.9986815 107.642325,23.996155 107.483914,23.990297 L107.464603,23.9895829 C107.37246,23.9861772 107.292525,23.98334 107.220956,23.981005 L107.220956,24.0128633 L106.752792,24.0427329 C98.5890739,24.5635916 95.2872624,27.7760566 91.8725578,37.1176589 C91.8931907,37.0612134 87.4819684,50.1783887 85.5810999,54.996039 C82.2189596,63.5172051 78.1169747,71.6915896 72.5668878,80.3738777 C65.6562262,91.1850979 64.2053861,106.947383 69.2338707,119.825748 C74.9767648,134.533774 88.0353067,143.648989 107.185056,144.040866 L107.674826,144.050888 L107.674826,144.063834 C107.726711,144.062124 107.771344,144.061211 107.824406,144.060727 C107.871867,144.061207 107.913699,144.06211 107.96386,144.063796 L107.96386,144.050888 L108.45363,144.040866 C127.603366,143.64899 140.661671,134.533793 146.404271,119.825756 C151.432477,106.947435 149.981407,91.1851446 143.070715,80.3738777 C137.520628,71.6915896 133.418644,63.5172051 130.056503,54.996039 C128.155635,50.1783887 123.744413,37.0612134 123.765045,37.1176589 C120.350341,27.7760566 117.048529,24.5635916 108.884811,24.0427329 L108.416647,24.0128633 L108.416647,23.9810132 Z" id="Stroke-24" stroke="#DED44F"></path>
                        <path d="M121.053713,98.0393133 C112.910052,82.6718194 115.830418,74.7137125 108.964959,74.1850271 L108.964959,74.1549755 C108.830639,74.1549755 108.708235,74.1627666 108.580415,74.1672187 C108.453678,74.1627666 108.331274,74.1549755 108.196954,74.1549755 L108.196954,74.1850271 C101.330412,74.7137125 104.251861,82.6718194 96.1081996,98.0393133 C91.3355246,107.044774 93.648203,124.852012 108.355105,125.214857 L108.355105,125.231552 C108.433097,125.231552 108.504589,125.223761 108.580415,125.223761 C108.657324,125.223761 108.728816,125.231552 108.805725,125.231552 L108.805725,125.214857 C123.512627,124.852012 125.826388,107.044774 121.053713,98.0393133" id="Fill-26" fill="#FFF1AF"></path>
                        <path d="M116.765563,102.463687 C117.286593,104.760964 116.655075,106.875706 115.354125,107.187352 C114.053176,107.498998 112.575662,105.889568 112.054632,103.592291 C111.533602,101.295014 111.033154,94.1883687 112.334103,93.8767225 C113.635052,93.5650764 116.244534,100.16641 116.765563,102.463687" id="Fill-28" fill="#3C3C3B"></path>
                        <path d="M100.396133,102.463687 C99.8751032,104.760964 100.506622,106.875706 101.807571,107.187352 C103.10852,107.498998 104.586035,105.889568 105.107064,103.592291 C105.628094,101.295014 106.128542,94.1883687 104.827593,93.8767225 C103.526644,93.5650764 100.917163,100.16641 100.396133,102.463687" id="Fill-30" fill="#3C3C3B"></path>
                    </g>
                </g>
            </g>
            <g id="red_apple" mask="url(#mask-2)">
                <g transform="translate(392.133893, 337.567710) rotate(-15.000000) translate(-392.133893, -337.567710) translate(348.133893, 278.567710)">
                    <path d="M45.462707,27.4157051 C43.8768258,27.4754406 42.7609606,-2.34659066 74.7592418,0.148241687 C74.7592418,0.148241687 76.5615332,26.2385659 45.462707,27.4157051" id="Fill-3" fill="#869B13"></path>
                    <path d="M39.9234489,45.1169786 C39.9234489,45.1169786 44.1290537,28.9813868 37.8234842,7.6417856 C37.8234842,7.6417856 39.9234489,4.51446054 44.5462088,6.60168648 C44.5462088,6.60168648 48.3318207,39.916483 44.5462088,49.8044523 L39.9234489,45.1169786 Z" id="Fill-1" fill="#623B12"></path>
                    <path d="M77.9539789,35.3969424 C57.9216073,21.1093794 43.9946073,36.0601492 43.9946073,42.7090505 C43.9946073,36.0601492 30.0676074,21.1093794 10.0321096,35.3969424 C-13.2733415,52.0175122 6.48705506,133.639087 43.9946073,114.523917 C81.5052858,133.639087 101.25943,52.0175122 77.9539789,35.3969424" id="Fill-6" fill="#D4442A"></path>
                </g>
            </g>
            <g id="red_apple" mask="url(#mask-2)">
                <g transform="translate(39.854390, 13.817286) rotate(-15.000000) translate(-39.854390, -13.817286) translate(-23.145610, -70.182714)">
                    <path d="M57.0875003,64.5138535 C57.0875003,64.5138535 63.1011958,41.4411825 54.0847104,10.9271731 C54.0847104,10.9271731 57.0875003,6.45533577 63.697696,9.43991037 C63.697696,9.43991037 69.1108335,57.0775396 63.697696,71.216585 L57.0875003,64.5138535 Z" id="Fill-1" fill="#623B12"></path>
                    <path d="M111.468271,50.6149397 C82.8235002,30.1848096 62.9089478,51.5632752 62.9089478,61.0706991 C62.9089478,51.5632752 42.9943954,30.1848096 14.3451549,50.6149397 C-18.9798705,74.3810925 9.27599614,191.093747 62.9089478,163.760505 C116.54637,191.093747 144.793296,74.3810925 111.468271,50.6149397" id="Fill-6" fill="#D4442A"></path>
                </g>
            </g>
            <g id="Group-34" mask="url(#mask-2)">
                <g transform="translate(542.727548, 239.362094) rotate(-30.000000) translate(-542.727548, -239.362094) translate(477.727548, 156.362094)">
                    <path d="M128.456357,59.8549279 C134.153916,99.7477546 113.555215,159.644197 78.31396,164.69313 C43.0727049,169.744221 6.53635412,118.033136 0.840950103,78.1424679 C-4.85660881,38.2496412 18.9959932,22.1401144 54.2372483,17.0890233 C89.4763485,12.0400908 122.758798,19.9621012 128.456357,59.8549279" id="Fill-4" stroke="none" fill="#EC5858" fill-rule="evenodd"></path>
                    <path d="M52.718043,15.6631884 L33.4612073,21.1343934 C31.8365106,21.5971322 32.0489188,23.974339 33.730107,24.1399269 L47.6609205,25.5077281 C48.8382041,25.6256812 49.4437934,26.9798725 48.7478177,27.9393748 L45.6995342,40.6510801 C44.6826865,42.0529063 46.3977696,43.8063231 47.8123178,42.8127958 L59.1738961,26.9798725 C59.7772257,26.5556953 60.5952232,26.6237451 61.1217243,27.1409237 L72.9487929,38.7729052 C73.9114087,39.721066 75.538365,39.0428361 75.5474036,37.6886448 L75.6400498,24.8453766 C75.6445691,24.1966351 76.0558275,23.6227483 76.6659361,23.4072572 L91.0464222,18.3602293 C92.5897711,17.8180992 92.323131,15.549772 90.6961747,15.3841841 L69.7355541,13.2519566 C69.6135324,13.2383467 69.489251,13.240615 69.3649696,13.2587616 L52.9168932,15.6200902 C52.851363,15.6314318 52.7835732,15.6450418 52.718043,15.6631884" id="Fill-6" stroke="none" fill="#067883" fill-rule="evenodd"></path>
                    <path d="M64.718493,15.7316227 C64.718493,15.7316227 63.7111171,2.61232814 44.7914749,0.801131031" id="Stroke-8" stroke="#067883" stroke-width="3" fill="none" stroke-linecap="round"></path>
                    <path d="M106.127909,56.1994351 C106.547288,58.6097587 105.786352,60.769659 104.430935,61.0223181 C103.073355,61.2749773 101.635791,59.5242506 101.216411,57.1116912 C100.797032,54.7013676 100.645709,47.3027029 102.003288,47.0500437 C103.358706,46.7996205 105.708529,53.7891116 106.127909,56.1994351" id="Fill-10" stroke="none" fill="#F78950" fill-rule="evenodd"></path>
                    <path d="M81.8512321,62.3909258 C82.2706118,64.8012493 81.5096755,66.9611496 80.1542578,67.2138088 C78.7966784,67.4664679 77.3591141,65.7157413 76.9397345,63.3031818 C76.5203548,60.8928583 76.3690323,53.4941935 77.7266117,53.2415344 C79.0820294,52.9911112 81.4318525,59.9806022 81.8512321,62.3909258" id="Fill-12" stroke="none" fill="#F78950" fill-rule="evenodd"></path>
                    <path d="M56.5174593,60.9400362 C56.9368389,63.3525957 56.1759027,65.5102601 54.820485,65.7629192 C53.4629055,66.0155784 52.0253413,64.2648517 51.6059617,61.8545282 C51.186582,59.4419687 51.0352595,52.043304 52.3928389,51.7906448 C53.7482566,51.5402216 56.0980796,58.5297127 56.5174593,60.9400362" id="Fill-14" stroke="none" fill="#F78950" fill-rule="evenodd"></path>
                    <path d="M32.5931479,69.6789124 C33.0125276,72.0914719 32.2515913,74.2491362 30.8961736,74.5017954 C29.5385942,74.7544545 28.1010299,73.0037279 27.6816503,70.5934043 C27.2622706,68.1808449 27.1109481,60.7821801 28.4685275,60.529521 C29.8239452,60.2790978 32.1737683,67.2685889 32.5931479,69.6789124" id="Fill-16" stroke="none" fill="#F78950" fill-rule="evenodd"></path>
                    <path d="M98.9833227,81.2681415 C99.4027024,83.678465 98.6417661,85.8383653 97.2863484,86.0910245 C95.928769,86.3436836 94.4912047,84.592957 94.0718251,82.1803975 C93.6524455,79.770074 93.5011229,72.3714092 94.8587024,72.1187501 C96.2141201,71.8683269 98.5639431,78.857818 98.9833227,81.2681415" id="Fill-18" stroke="none" fill="#F78950" fill-rule="evenodd"></path>
                    <path d="M75.0587952,90.0070177 C75.4781748,92.4173412 74.7172386,94.5772415 73.3618209,94.8299007 C72.0064032,95.0825598 70.5666772,93.3318332 70.1472976,90.9192737 C69.7279179,88.5089502 69.5765954,81.1102854 70.9341748,80.8576263 C72.2895925,80.607203 74.6394155,87.5966941 75.0587952,90.0070177" id="Fill-20" stroke="none" fill="#F78950" fill-rule="evenodd"></path>
                    <path d="M66.2673874,117.303149 C66.686767,119.713473 65.9258308,121.873373 64.5704131,122.126032 C63.2149954,122.378691 61.7752694,120.627965 61.3558897,118.215405 C60.9365101,115.805082 60.7851875,108.406417 62.142767,108.153758 C63.4981847,107.903335 65.8480077,114.892826 66.2673874,117.303149" id="Fill-26" stroke="none" fill="#F78950" fill-rule="evenodd"></path>
                    <path d="M38.665938,113.588389 C39.0853177,115.998712 38.3243814,118.158613 36.9689637,118.411272 C35.6113843,118.663931 34.17382,116.913204 33.7544404,114.500645 C33.3350608,112.090321 33.1837382,104.691657 34.5413177,104.438998 C35.8967354,104.188574 38.2465584,111.178065 38.665938,113.588389" id="Fill-28" stroke="none" fill="#F78950" fill-rule="evenodd"></path>
                    <path d="M49.7250224,88.5561281 C50.144402,90.9686876 49.3834657,93.126352 48.028048,93.3790111 C46.6726303,93.6316703 45.2329044,91.8809436 44.8135247,89.4706201 C44.3941451,87.0580606 44.2428225,79.6593959 45.600402,79.4067367 C46.9558197,79.1563135 49.3056427,86.1458046 49.7250224,88.5561281" id="Fill-32" stroke="none" fill="#F78950" fill-rule="evenodd"></path>
                </g>
            </g>
            <g id="Group-34" mask="url(#mask-2)">
                <g transform="translate(351.208349, 795.811253) rotate(-30.000000) translate(-351.208349, -795.811253) translate(286.208349, 712.811253)">
                    <path d="M128.456357,59.8549279 C134.153916,99.7477546 113.555215,159.644197 78.31396,164.69313 C43.0727049,169.744221 6.53635412,118.033136 0.840950103,78.1424679 C-4.85660881,38.2496412 18.9959932,22.1401144 54.2372483,17.0890233 C89.4763485,12.0400908 122.758798,19.9621012 128.456357,59.8549279" id="Fill-4" stroke="none" fill="#EC5858" fill-rule="evenodd"></path>
                    <path d="M52.718043,15.6631884 L33.4612073,21.1343934 C31.8365106,21.5971322 32.0489188,23.974339 33.730107,24.1399269 L47.6609205,25.5077281 C48.8382041,25.6256812 49.4437934,26.9798725 48.7478177,27.9393748 L45.6995342,40.6510801 C44.6826865,42.0529063 46.3977696,43.8063231 47.8123178,42.8127958 L59.1738961,26.9798725 C59.7772257,26.5556953 60.5952232,26.6237451 61.1217243,27.1409237 L72.9487929,38.7729052 C73.9114087,39.721066 75.538365,39.0428361 75.5474036,37.6886448 L75.6400498,24.8453766 C75.6445691,24.1966351 76.0558275,23.6227483 76.6659361,23.4072572 L91.0464222,18.3602293 C92.5897711,17.8180992 92.323131,15.549772 90.6961747,15.3841841 L69.7355541,13.2519566 C69.6135324,13.2383467 69.489251,13.240615 69.3649696,13.2587616 L52.9168932,15.6200902 C52.851363,15.6314318 52.7835732,15.6450418 52.718043,15.6631884" id="Fill-6" stroke="none" fill="#067883" fill-rule="evenodd"></path>
                    <path d="M64.718493,15.7316227 C64.718493,15.7316227 63.7111171,2.61232814 44.7914749,0.801131031" id="Stroke-8" stroke="#067883" stroke-width="3" fill="none" stroke-linecap="round"></path>
                    <path d="M106.127909,56.1994351 C106.547288,58.6097587 105.786352,60.769659 104.430935,61.0223181 C103.073355,61.2749773 101.635791,59.5242506 101.216411,57.1116912 C100.797032,54.7013676 100.645709,47.3027029 102.003288,47.0500437 C103.358706,46.7996205 105.708529,53.7891116 106.127909,56.1994351" id="Fill-10" stroke="none" fill="#F78950" fill-rule="evenodd"></path>
                    <path d="M81.8512321,62.3909258 C82.2706118,64.8012493 81.5096755,66.9611496 80.1542578,67.2138088 C78.7966784,67.4664679 77.3591141,65.7157413 76.9397345,63.3031818 C76.5203548,60.8928583 76.3690323,53.4941935 77.7266117,53.2415344 C79.0820294,52.9911112 81.4318525,59.9806022 81.8512321,62.3909258" id="Fill-12" stroke="none" fill="#F78950" fill-rule="evenodd"></path>
                    <path d="M56.5174593,60.9400362 C56.9368389,63.3525957 56.1759027,65.5102601 54.820485,65.7629192 C53.4629055,66.0155784 52.0253413,64.2648517 51.6059617,61.8545282 C51.186582,59.4419687 51.0352595,52.043304 52.3928389,51.7906448 C53.7482566,51.5402216 56.0980796,58.5297127 56.5174593,60.9400362" id="Fill-14" stroke="none" fill="#F78950" fill-rule="evenodd"></path>
                    <path d="M32.5931479,69.6789124 C33.0125276,72.0914719 32.2515913,74.2491362 30.8961736,74.5017954 C29.5385942,74.7544545 28.1010299,73.0037279 27.6816503,70.5934043 C27.2622706,68.1808449 27.1109481,60.7821801 28.4685275,60.529521 C29.8239452,60.2790978 32.1737683,67.2685889 32.5931479,69.6789124" id="Fill-16" stroke="none" fill="#F78950" fill-rule="evenodd"></path>
                    <path d="M98.9833227,81.2681415 C99.4027024,83.678465 98.6417661,85.8383653 97.2863484,86.0910245 C95.928769,86.3436836 94.4912047,84.592957 94.0718251,82.1803975 C93.6524455,79.770074 93.5011229,72.3714092 94.8587024,72.1187501 C96.2141201,71.8683269 98.5639431,78.857818 98.9833227,81.2681415" id="Fill-18" stroke="none" fill="#F78950" fill-rule="evenodd"></path>
                    <path d="M75.0587952,90.0070177 C75.4781748,92.4173412 74.7172386,94.5772415 73.3618209,94.8299007 C72.0064032,95.0825598 70.5666772,93.3318332 70.1472976,90.9192737 C69.7279179,88.5089502 69.5765954,81.1102854 70.9341748,80.8576263 C72.2895925,80.607203 74.6394155,87.5966941 75.0587952,90.0070177" id="Fill-20" stroke="none" fill="#F78950" fill-rule="evenodd"></path>
                    <path d="M90.1919149,108.564273 C90.6112945,110.974597 89.8503583,113.134497 88.4949406,113.387156 C87.1373611,113.639815 85.6997969,111.889088 85.2804173,109.476529 C84.8610376,107.066205 84.7097151,99.6675408 86.0672945,99.4148816 C87.4227122,99.1644584 89.7725353,106.153949 90.1919149,108.564273" id="Fill-22" stroke="none" fill="#F78950" fill-rule="evenodd"></path>
                    <path d="M82.1050216,140.955176 C82.5244013,143.365499 81.763465,145.525399 80.4080473,145.778059 C79.0504679,146.030718 77.6129037,144.279991 77.193524,141.867432 C76.7741444,139.457108 76.6228218,132.058443 77.9804013,131.805784 C79.335819,131.555361 81.685642,138.544852 82.1050216,140.955176" id="Fill-24" stroke="none" fill="#F78950" fill-rule="evenodd"></path>
                    <path d="M66.2673874,117.303149 C66.686767,119.713473 65.9258308,121.873373 64.5704131,122.126032 C63.2149954,122.378691 61.7752694,120.627965 61.3558897,118.215405 C60.9365101,115.805082 60.7851875,108.406417 62.142767,108.153758 C63.4981847,107.903335 65.8480077,114.892826 66.2673874,117.303149" id="Fill-26" stroke="none" fill="#F78950" fill-rule="evenodd"></path>
                    <path d="M38.665938,113.588389 C39.0853177,115.998712 38.3243814,118.158613 36.9689637,118.411272 C35.6113843,118.663931 34.17382,116.913204 33.7544404,114.500645 C33.3350608,112.090321 33.1837382,104.691657 34.5413177,104.438998 C35.8967354,104.188574 38.2465584,111.178065 38.665938,113.588389" id="Fill-28" stroke="none" fill="#F78950" fill-rule="evenodd"></path>
                    <path d="M112.564089,102.654732 C112.983469,105.065056 112.222533,107.224956 110.867115,107.477615 C109.509535,107.730274 108.071971,105.979548 107.652592,103.566988 C107.233212,101.156665 107.081889,93.7579998 108.439469,93.5053407 C109.794887,93.2549175 112.14471,100.244409 112.564089,102.654732" id="Fill-30" stroke="none" fill="#F78950" fill-rule="evenodd"></path>
                    <path d="M49.7250224,88.5561281 C50.144402,90.9686876 49.3834657,93.126352 48.028048,93.3790111 C46.6726303,93.6316703 45.2329044,91.8809436 44.8135247,89.4706201 C44.3941451,87.0580606 44.2428225,79.6593959 45.600402,79.4067367 C46.9558197,79.1563135 49.3056427,86.1458046 49.7250224,88.5561281" id="Fill-32" stroke="none" fill="#F78950" fill-rule="evenodd"></path>
                </g>
            </g>
            <g id="Group-5" mask="url(#mask-2)" fill="#F6C32A">
                <g transform="translate(233.000000, -61.000000)" id="lemon">
                    <path d="M95.1118877,18.7865815 C93.6589751,7.30629748 88.2806498,5.80508535 81.8099091,5.71443245 C75.3391684,5.62015343 69.9244292,6.97994702 68.1474335,18.4167177 C66.7163693,27.6161746 39.2676109,32.3373779 39.325873,79.6074293 C39.3768524,126.888359 67.9617228,130.862582 70.0992157,132.327533 C72.2367086,133.788858 73.3946689,143.8332 79.869051,143.923853 C86.3434331,144.014506 87.7890629,134.006425 89.9629696,132.606744 C92.1441591,131.203437 120.823705,128.019707 122.20379,80.7641603 C123.583875,33.5122396 96.2880549,28.0295518 95.1118877,18.7865815" transform="translate(80.790088, 74.817286) rotate(-306.000000) translate(-80.790088, -74.817286) "></path>
                </g>
            </g>
            <g id="Group-4" mask="url(#mask-2)" fill="#F6C32A">
                <g transform="translate(-63.000000, 322.000000)" id="lemon">
                    <path d="M108.929057,21.4484871 C107.262369,8.27903539 101.092696,6.55694032 93.6698737,6.45294907 C86.2470515,6.34479817 80.0356071,7.9046669 77.9971506,21.0242028 C76.3555248,31.5772346 44.8680549,36.9930988 44.9348896,91.2182953 C44.9933699,145.455971 77.7841152,150.014947 80.236111,151.695446 C82.6881069,153.371785 84.0164454,164.894015 91.4434448,164.998006 C98.8704441,165.101997 100.528779,153.621364 103.022546,152.015739 C105.524668,150.405954 138.42402,146.753781 140.007165,92.5452236 C141.590311,38.3408254 110.278282,32.0514347 108.929057,21.4484871" transform="translate(92.500000, 85.723347) rotate(-306.000000) translate(-92.500000, -85.723347) "></path>
                </g>
            </g>
            <g id="Peatch" mask="url(#mask-2)">
                <g transform="translate(553.480816, 30.819438) rotate(-240.000000) translate(-553.480816, -30.819438) translate(500.480816, -15.680562)">
                    <path d="M47.76128,42.9255832 C47.76128,42.9255832 53.398528,25.5444822 44.9445591,2.55388822 C44.9445591,2.55388822 47.76128,-0.807265463 53.9618722,1.43350366 C53.9618722,1.43350366 59.0395824,37.3160903 53.9618722,47.9710988" id="Fill-1" fill="#623B12"></path>
                    <path d="M53.1306025,28.0982219 C51.3492169,27.9651933 53.5759489,-5.18241154 89.0970824,1.5707478 C89.0970824,1.5707478 88.0731663,30.6727172 53.1306025,28.0982219" id="Fill-3" fill="#869B13"></path>
                    <path d="M52.8289571,26.9453835 C52.8289571,20.8901632 36.3546076,4.94296487 12.6581696,20.1793246 C-14.9174138,37.9072096 5.71712496,116.612844 52.8289571,85.4149259 C99.9370912,116.612844 120.57163,37.9072096 92.9997445,20.1793246 C69.3070045,4.94296487 52.8289571,20.8901632 52.8289571,26.9453835 Z" id="Fill-5" fill="#F2A581"></path>
                </g>
            </g>
            <g id="Peatch" mask="url(#mask-2)">
                <g transform="translate(444.935897, 1041.284521) rotate(-240.000000) translate(-444.935897, -1041.284521) translate(364.435897, 970.784521)">
                    <path d="M72.9073237,64.8431091 C72.9073237,64.8431091 81.5125509,38.3109567 68.6076153,3.21594502 C68.6076153,3.21594502 72.9073237,-1.91483706 82.3724926,1.50568432 C82.3724926,1.50568432 90.1235886,56.2802498 82.3724926,72.5450601" id="Fill-1" fill="#623B12"></path>
                    <path d="M81.1035641,42.2092259 C78.3842891,42.0061585 81.7833829,-8.5934728 136.006192,1.71518673 C136.006192,1.71518673 134.44319,46.1391784 81.1035641,42.2092259" id="Fill-3" fill="#869B13"></path>
                    <path d="M80.6431041,40.4494245 C80.6431041,31.2061651 55.4951029,6.86285701 19.3226243,30.1210739 C-22.7713477,57.1825901 8.7271589,177.326296 80.6431041,129.70285 C152.553404,177.326296 184.051911,57.1825901 141.963584,30.1210739 C105.79675,6.86285701 80.6431041,31.2061651 80.6431041,40.4494245 Z" id="Fill-5" fill="#F2A581"></path>
                </g>
            </g>
            <g id="pineapple" mask="url(#mask-2)">
                <g transform="translate(498.500000, 497.652344)">
                    <g id="Group-6" transform="translate(13.202984, 126.528593)">
                        <mask id="mask-10" fill="white">
                            <use xlink:href="#path-9"></use>
                        </mask>
                        <g id="Clip-5"></g>
                        <path d="M86.6743071,12.0821164 C77.9362427,4.40597924 66.4563781,0.478653258 52.8157318,0.478653258 C39.1674905,0.478653258 27.6952209,4.40597924 18.9495615,12.0821164 C6.8469057,22.7099753 0,40.5323965 0,65.1674413 C0,107.599998 1.44685029,148.08965 52.8157318,148.08965 C104.184613,148.08965 105.623869,107.599998 105.623869,65.1674413 C105.623869,40.5323965 98.7769629,22.7099753 86.6743071,12.0821164" id="Fill-4" fill="#F6AB2A" mask="url(#mask-10)"></path>
                    </g>
                    <g id="Group-3">
                        <mask id="mask-12" fill="white">
                            <use xlink:href="#path-11"></use>
                        </mask>
                        <g id="Clip-2"></g>
                        <path d="M117.47724,127.665043 L102.415199,126.375164 C102.415199,126.375164 123.97893,111.943356 132.029836,93.1432679 L113.710686,95.4057073 C113.710686,95.4057073 131.286547,63.1752189 130.029637,43.3572393 L106.181753,64.5310341 C106.181753,64.5310341 104.924843,47.0702773 104.924843,21.9073362 L84.6347243,41.0329846 C84.6347243,41.0329846 81.0769591,21.9073362 66.9127108,0.511006337 C66.7248006,0.226656037 66.3155741,0.168961773 66.0149179,0 C65.7059101,0.168961773 65.2966836,0.226656037 65.1087735,0.511006337 C50.9528767,21.9073362 47.38676,41.0329846 47.38676,41.0329846 L27.0966413,21.9073362 C27.0966413,47.0702773 25.8397313,64.5310341 25.8397313,64.5310341 L1.99184742,43.3572393 C0.734937412,63.1752189 18.3107986,95.4057073 18.3107986,95.4057073 L0,93.1432679 C8.04255373,111.943356 29.6062855,126.375164 29.6062855,126.375164 L14.5442444,127.665043 C18.9329899,134.876826 24.7039189,140.003373 28.7753052,143.032322 C38.3921282,135.412558 51.0071619,131.514074 66.0149179,131.514074 C81.0143223,131.514074 93.6377076,135.412558 103.246179,143.032322 C107.317565,140.003373 113.088494,134.876826 117.47724,127.665043 Z" id="Fill-1" fill="#869B13" mask="url(#mask-12)"></path>
                    </g>
                </g>
            </g>
            <g id="kiwi" mask="url(#mask-2)">
                <g transform="translate(136.500000, 167.606694)">
                    <g id="Group-6">
                        <mask id="mask-14" fill="white">
                            <use xlink:href="#path-13"></use>
                        </mask>
                        <g id="Clip-5"></g>
                        <path d="M93.7959715,54.7143167 C93.7959715,84.9322183 72.7993938,109.428633 46.8979857,109.428633 C20.9976742,109.428633 0,84.9322183 0,54.7143167 C0,24.4964151 20.9976742,0 46.8979857,0 C72.7993938,0 93.7959715,24.4964151 93.7959715,54.7143167" id="Fill-4" fill="#B9673C" mask="url(#mask-14)"></path>
                    </g>
                    <g id="Group-2" transform="translate(62.530648, 15.632662)">
                        <g id="Group-65">
                            <path d="M93.7959715,46.8979857 C93.7959715,72.7988952 72.7991709,93.7959715 46.8986015,93.7959715 C20.9968005,93.7959715 0,72.7988952 0,46.8979857 C0,20.9970762 20.9968005,0 46.8986015,0 C72.7991709,0 93.7959715,20.9970762 93.7959715,46.8979857" id="Fill-11" fill="#50BB75"></path>
                            <path d="M93.2959715,46.8979857 C93.2959715,21.2732171 72.5230271,0.5 46.8986015,0.5 C21.2731328,0.5 0.5,21.2730287 0.5,46.8979857 C0.5,72.5229427 21.2731328,93.2959715 46.8986015,93.2959715 C72.5230271,93.2959715 93.2959715,72.5227543 93.2959715,46.8979857 Z" id="Stroke-13" stroke="#B9673C"></path>
                        </g>
                        <g id="Group" transform="translate(15.632662, 15.632662)">
                            <path d="M46.8979857,31.2653238 C46.8979857,33.0620989 41.9526508,33.8613504 41.3054632,35.4228702 C40.6336209,37.0419196 43.5398013,41.098789 42.3193904,42.31924 C41.0989796,43.5396909 37.0422434,40.6344424 35.4232472,41.3052795 C33.8607515,41.9535156 33.0615262,46.8979857 31.2658375,46.8979857 C29.4691215,46.8979857 28.6698962,41.9535156 27.1074004,41.3052795 C25.4884042,40.6344424 21.4316681,43.5396909 20.2112572,42.31924 C18.9908464,41.098789 21.8970268,37.0419196 21.2251844,35.4228702 C20.5779969,33.8613504 15.6326619,33.0610715 15.6326619,31.2653238 C15.6326619,29.4685488 20.5779969,28.6692972 21.2251844,27.1077775 C21.8970268,25.4877007 18.9918736,21.4308313 20.2112572,20.2114077 C21.4316681,18.9909567 25.4884042,21.8962053 27.1074004,21.2253682 C28.6698962,20.577132 29.4691215,15.6326619 31.2658375,15.6326619 C33.0615262,15.6326619 33.8607515,20.577132 35.4232472,21.2253682 C37.0422434,21.8962053 41.0989796,18.9909567 42.3193904,20.2114077 C43.5398013,21.4318586 40.6336209,25.488728 41.3054632,27.1077775 C41.9526508,28.6692972 46.8979857,29.4685488 46.8979857,31.2653238" id="Fill-15" fill="#FFED9B"></path>
                            <path d="M11.8283714,15.5422296 C10.8893056,14.4821213 10.6158653,13.168436 11.2183054,12.6087793 C11.8196561,12.0491225 13.0681125,12.4546223 14.0060889,13.5147306 C14.9451546,14.5737218 17.2579582,18.1908246 16.6566074,18.7504814 C16.0552567,19.3112552 12.7674371,16.6023378 11.8283714,15.5422296" id="Fill-17" fill="#3C3C3B"></path>
                            <path d="M49.4990711,15.5422296 C50.4381369,14.4821213 50.7115771,13.168436 50.1102264,12.6087793 C49.5077863,12.0491225 48.25933,12.4546223 47.3213536,13.5147306 C46.3822878,14.5737218 44.0694843,18.1908246 44.670835,18.7504814 C45.2721857,19.3112552 48.5600053,16.6023378 49.4990711,15.5422296" id="Fill-19" fill="#3C3C3B"></path>
                            <path d="M18.1040978,3.0347074 C17.5811842,1.70650009 17.7685615,0.378292776 18.5224287,0.0655105665 C19.2752065,-0.245037485 20.3101398,0.578249975 20.831964,1.90534021 C21.3548777,3.23354752 22.3026587,7.44717072 21.5498809,7.75995293 C20.7960137,8.07050098 18.6270115,4.36291472 18.1040978,3.0347074" id="Fill-21" fill="#3C3C3B"></path>
                            <path d="M21.6075104,12.4139531 C21.0845967,11.0857458 21.2719741,9.75753846 22.0258413,9.44587333 C22.7786191,9.13309112 23.8135523,9.95749566 24.3353766,11.2845859 C24.8582903,12.6127932 25.8060713,16.8264164 25.0532935,17.1380815 C24.2994263,17.4508637 22.130424,13.7421604 21.6075104,12.4139531" id="Fill-23" fill="#3C3C3B"></path>
                            <path d="M43.6550752,3.0347074 C44.1779889,1.70650009 43.9906115,0.378292776 43.2367443,0.0655105665 C42.4839665,-0.245037485 41.4490333,0.578249975 40.927209,1.90534021 C40.4042954,3.23354752 39.4565144,7.44717072 40.2092921,7.75995293 C40.9631593,8.07050098 43.1321616,4.36291472 43.6550752,3.0347074" id="Fill-25" fill="#3C3C3B"></path>
                            <path d="M40.1516627,12.4139531 C40.6745764,11.0857458 40.487199,9.75753846 39.7333318,9.44587333 C38.980554,9.13309112 37.9456207,9.95749566 37.4237965,11.2845859 C36.9008828,12.6127932 35.9531018,16.8264164 36.7058796,17.1380815 C37.4597468,17.4508637 39.628749,13.7421604 40.1516627,12.4139531" id="Fill-27" fill="#3C3C3B"></path>
                            <path d="M29.7024251,5.69924664 C29.7198555,4.26715095 30.3931069,3.11544217 31.2058019,3.12661296 C32.0184968,3.13666668 32.6623343,4.30624872 32.6438144,5.73834441 C32.626384,7.16932303 31.9139141,11.4320977 31.1023085,11.422044 C30.2896136,11.4108732 29.6849946,7.13134233 29.7024251,5.69924664" id="Fill-29" fill="#3C3C3B"></path>
                            <path d="M59.340426,21.439219 C60.6357267,20.9030209 61.9310274,21.0951585 62.2360603,21.8681774 C62.5389145,22.6400792 61.7360241,23.7013046 60.4418128,24.2363856 C59.1465121,24.7725837 55.0372823,25.7444427 54.7322494,24.9725409 C54.4293952,24.199522 58.0451253,21.975417 59.340426,21.439219" id="Fill-31" fill="#3C3C3B"></path>
                            <path d="M48.3967195,22.189586 C49.6920202,21.653388 50.9873209,21.8455256 51.2912645,22.6185445 C51.5962974,23.3904463 50.7923177,24.4516717 49.4981064,24.9867526 C48.2028057,25.5229507 44.0935759,26.4948097 43.7896323,25.7229079 C43.4845994,24.949889 47.1014188,22.7257841 48.3967195,22.189586" id="Fill-33" fill="#3C3C3B"></path>
                            <path d="M59.340426,41.3385642 C60.6357267,41.8747623 61.9310274,41.6826246 62.2360603,40.9096057 C62.5389145,40.1377039 61.7360241,39.0764786 60.4418128,38.5413976 C59.1465121,38.0051995 55.0372823,37.0333405 54.7322494,37.8052423 C54.4293952,38.5782612 58.0451253,40.8023661 59.340426,41.3385642" id="Fill-35" fill="#3C3C3B"></path>
                            <path d="M49.1981779,44.0481948 C50.4934786,44.5843929 51.7887793,44.3922552 52.0927228,43.6192364 C52.3977558,42.8473345 51.5937761,41.7861092 50.2995648,41.2510282 C49.0042641,40.7148301 44.8950343,39.7429711 44.5910907,40.5148729 C44.2860577,41.2878918 47.9028772,43.5119967 49.1981779,44.0481948" id="Fill-37" fill="#3C3C3B"></path>
                            <path d="M55.6055493,29.7024344 C57.0021645,29.7203077 58.1253395,30.4106627 58.1144454,31.2440039 C58.1046408,32.0773451 56.9640354,32.7375389 55.5674202,32.7185486 C54.1718944,32.7006753 50.0147308,31.9701055 50.0245354,31.1378814 C50.0354295,30.3045402 54.2089341,29.6845612 55.6055493,29.7024344" id="Fill-39" fill="#3C3C3B"></path>
                            <path d="M2.95986471,21.4405201 C1.664564,20.904322 0.369263304,21.0964597 0.0642303381,21.8694786 C-0.239713224,22.6413804 0.564266521,23.7026057 1.85847782,24.2376867 C3.15377852,24.7738848 7.26300833,25.7457438 7.56695189,24.973842 C7.87089545,24.2008231 4.25516541,21.9767182 2.95986471,21.4405201" id="Fill-41" fill="#3C3C3B"></path>
                            <path d="M13.901699,22.189586 C12.6063983,21.653388 11.3110976,21.8455256 11.0071541,22.6185445 C10.7032105,23.3904463 11.5061009,24.4516717 12.8003122,24.9867526 C14.0956129,25.5229507 18.2048427,26.4948097 18.5098756,25.7229079 C18.8138192,24.949889 15.1969997,22.7257841 13.901699,22.189586" id="Fill-43" fill="#3C3C3B"></path>
                            <path d="M3.39757924,41.3385642 C2.10227854,41.8747623 0.806977839,41.6826246 0.501944873,40.9096057 C0.198001311,40.1377039 1.00198106,39.0764786 2.29619235,38.5413976 C3.59149306,38.0051995 7.70072287,37.0333405 8.00466643,37.8052423 C8.30860999,38.5782612 4.69287994,40.8023661 3.39757924,41.3385642" id="Fill-45" fill="#3C3C3B"></path>
                            <path d="M12.3994366,44.0481948 C11.1041359,44.5843929 9.80883525,44.3922552 9.50489168,43.6192364 C9.20094812,42.8473345 10.0038385,41.7861092 11.2980498,41.2510282 C12.5933505,40.7148301 16.7025803,39.7429711 17.0076132,40.5148729 C17.3115568,41.2878918 13.6947373,43.5119967 12.3994366,44.0481948" id="Fill-47" fill="#3C3C3B"></path>
                            <path d="M5.63550711,29.7024344 C4.23889189,29.7203077 3.11571693,30.4106627 3.12661097,31.2440039 C3.1364156,32.0773451 4.27702101,32.7375389 5.67363623,32.7185486 C7.06916205,32.7006753 11.2263256,31.9701055 11.216521,31.1378814 C11.2056269,30.3045402 7.03212233,29.6845612 5.63550711,29.7024344" id="Fill-49" fill="#3C3C3B"></path>
                            <path d="M11.8283714,52.7435403 C10.8893056,53.8036485 10.6158653,55.1162167 11.2183054,55.6769905 C11.8196561,56.2366473 13.0681125,55.8311475 14.0060889,54.7710392 C14.9451546,53.712048 17.2579582,50.0949452 16.6566074,49.5352884 C16.0552567,48.9745146 12.7674371,51.683432 11.8283714,52.7435403" id="Fill-51" fill="#3C3C3B"></path>
                            <path d="M49.4990711,52.7435403 C50.4381369,53.8036485 50.7115771,55.1162167 50.1102264,55.6769905 C49.5077863,56.2366473 48.25933,55.8311475 47.3213536,54.7710392 C46.3822878,53.712048 44.0694843,50.0949452 44.670835,49.5352884 C45.2721857,48.9745146 48.5600053,51.683432 49.4990711,52.7435403" id="Fill-53" fill="#3C3C3B"></path>
                            <path d="M18.1040978,57.8936959 C17.5811842,59.2219032 17.7685615,60.5501105 18.5224287,60.8628927 C19.2752065,61.1745579 20.3101398,60.3501533 20.831964,59.0230631 C21.3548777,57.6948558 22.3026587,53.4812326 21.5498809,53.1695674 C20.7960137,52.8579023 18.6270115,56.5654886 18.1040978,57.8936959" id="Fill-55" fill="#3C3C3B"></path>
                            <path d="M21.6075104,48.5152106 C21.0845967,49.8434179 21.2719741,51.1716252 22.0258413,51.4832904 C22.7786191,51.7949555 23.8135523,50.971668 24.3353766,49.6445778 C24.8582903,48.3163705 25.8060713,44.1027473 25.0532935,43.7899651 C24.2994263,43.4782999 22.130424,47.1870033 21.6075104,48.5152106" id="Fill-57" fill="#3C3C3B"></path>
                            <path d="M43.6550752,57.8936959 C44.1779889,59.2219032 43.9906115,60.5501105 43.2367443,60.8628927 C42.4839665,61.1745579 41.4490333,60.3501533 40.927209,59.0230631 C40.4042954,57.6948558 39.4565144,53.4812326 40.2092921,53.1695674 C40.9631593,52.8579023 43.1321616,56.5654886 43.6550752,57.8936959" id="Fill-59" fill="#3C3C3B"></path>
                            <path d="M40.1516627,48.5152106 C40.6745764,49.8434179 40.487199,51.1716252 39.7333318,51.4832904 C38.980554,51.7949555 37.9456207,50.971668 37.4237965,49.6445778 C36.9008828,48.3163705 35.9531018,44.1027473 36.7058796,43.7899651 C37.4597468,43.4782999 39.628749,47.1870033 40.1516627,48.5152106" id="Fill-61" fill="#3C3C3B"></path>
                            <path d="M29.7024251,55.7473332 C29.7198555,57.1794289 30.3931069,58.3311377 31.2058019,58.3199669 C32.0184968,58.3099132 32.6623343,57.1403311 32.6438144,55.7082355 C32.626384,54.2772568 31.9139141,50.0144822 31.1023085,50.0245359 C30.2896136,50.0357067 29.6849946,54.3152375 29.7024251,55.7473332" id="Fill-63" fill="#3C3C3B"></path>
                        </g>
                    </g>
                </g>
            </g>
            <g id="kiwi" mask="url(#mask-2)">
                <g transform="translate(39.854390, 968.784521)">
                    <g id="Group-6">
                        <mask id="mask-16" fill="white">
                            <use xlink:href="#path-15"></use>
                        </mask>
                        <g id="Clip-5"></g>
                        <path d="M123.937926,72.2971238 C123.937926,112.225748 96.1939598,144.594248 61.9689632,144.594248 C27.7454155,144.594248 0,112.225748 0,72.2971238 C0,32.3684998 27.7454155,0 61.9689632,0 C96.1939598,0 123.937926,32.3684998 123.937926,72.2971238" id="Fill-4" fill="#B9673C" mask="url(#mask-16)"></path>
                    </g>
                    <g id="Group-2" transform="translate(82.625284, 20.656321)">
                        <g id="Group-65">
                            <path d="M123.937926,61.9689632 C123.937926,96.1933011 96.1936653,123.937926 61.9697768,123.937926 C27.7442611,123.937926 0,96.1933011 0,61.9689632 C0,27.7446254 27.7442611,0 61.9697768,0 C96.1936653,0 123.937926,27.7446254 123.937926,61.9689632" id="Fill-11" fill="#50BB75"></path>
                            <path d="M123.437926,61.9689632 C123.437926,28.0207663 95.9175215,0.5 61.9697768,0.5 C28.0206545,0.5 0.5,28.0205167 0.5,61.9689632 C0.5,95.9174098 28.0206545,123.437926 61.9697768,123.437926 C95.9175215,123.437926 123.437926,95.9171602 123.437926,61.9689632 Z" id="Stroke-13" stroke="#B9673C"></path>
                        </g>
                        <g id="Group" transform="translate(20.656321, 20.656321)">
                            <path d="M61.9689632,41.3126421 C61.9689632,43.6868227 55.4344122,44.742919 54.5792466,46.8062435 C53.6915033,48.9455851 57.531604,54.3061563 55.9190061,55.9188073 C54.3064081,57.5314582 48.946013,53.6925888 46.8067417,54.5790038 C44.7421276,55.435555 43.686066,61.9689632 41.3133208,61.9689632 C38.9392183,61.9689632 37.8831567,55.435555 35.8185426,54.5790038 C33.6792713,53.6925888 28.3188762,57.5314582 26.7062782,55.9188073 C25.0936803,54.3061563 28.933781,48.9455851 28.0460376,46.8062435 C27.1908721,44.742919 20.6563211,43.6854653 20.6563211,41.3126421 C20.6563211,38.9384616 27.1908721,37.8823653 28.0460376,35.8190408 C28.933781,33.6783417 25.0950377,28.3177705 26.7062782,26.706477 C28.3188762,25.0938261 33.6792713,28.9326955 35.8185426,28.0462805 C37.8831567,27.1897293 38.9392183,20.6563211 41.3133208,20.6563211 C43.686066,20.6563211 44.7421276,27.1897293 46.8067417,28.0462805 C48.946013,28.9326955 54.3064081,25.0938261 55.9190061,26.706477 C57.531604,28.319128 53.6915033,33.6796992 54.5792466,35.8190408 C55.4344122,37.8823653 61.9689632,38.9384616 61.9689632,41.3126421" id="Fill-15" fill="#FFED9B"></path>
                            <path d="M15.6294966,20.5368277 C14.3886559,19.1360466 14.0273438,17.4001999 14.823382,16.6606938 C15.6179807,15.9211876 17.2676367,16.4569975 18.507038,17.8577785 C19.7478788,19.2570836 22.803917,24.0365663 22.0093183,24.7760724 C21.2147195,25.5170546 16.8703374,21.9376088 15.6294966,20.5368277" id="Fill-17" fill="#3C3C3B"></path>
                            <path d="M65.4059246,20.5368277 C66.6467653,19.1360466 67.0080774,17.4001999 66.2134787,16.6606938 C65.4174405,15.9211876 63.7677844,16.4569975 62.5283832,17.8577785 C61.2875424,19.2570836 58.2315042,24.0365663 59.0261029,24.7760724 C59.8207016,25.5170546 64.1650838,21.9376088 65.4059246,20.5368277" id="Fill-19" fill="#3C3C3B"></path>
                            <path d="M23.9219692,4.00993067 C23.2310138,2.25489516 23.4786062,0.499859659 24.4747336,0.0865628198 C25.4694214,-0.323781899 26.8369374,0.764074424 27.5264533,2.51763387 C28.2174087,4.27266938 29.4697654,9.84036822 28.4750775,10.2536651 C27.4789501,10.6640098 24.6129246,5.76496618 23.9219692,4.00993067" id="Fill-21" fill="#3C3C3B"></path>
                            <path d="M28.5512265,16.4032589 C27.8602711,14.6482234 28.1078635,12.8931879 29.1039909,12.4813671 C30.0986788,12.0680703 31.4661947,13.1574027 32.1557106,14.9109621 C32.846666,16.6659976 34.0990227,22.2336965 33.1043348,22.6455172 C32.1082074,23.0588141 29.2421819,18.1582944 28.5512265,16.4032589" id="Fill-23" fill="#3C3C3B"></path>
                            <path d="M57.683922,4.00993067 C58.3748774,2.25489516 58.1272851,0.499859659 57.1311577,0.0865628198 C56.1364698,-0.323781899 54.7689539,0.764074424 54.079438,2.51763387 C53.3884825,4.27266938 52.1361259,9.84036822 53.1308138,10.2536651 C54.1269411,10.6640098 56.9929666,5.76496618 57.683922,4.00993067" id="Fill-25" fill="#3C3C3B"></path>
                            <path d="M53.0546647,16.4032589 C53.7456201,14.6482234 53.4980278,12.8931879 52.5019004,12.4813671 C51.5072125,12.0680703 50.1396966,13.1574027 49.4501806,14.9109621 C48.7592252,16.6659976 47.5068685,22.2336965 48.5015564,22.6455172 C49.4976838,23.0588141 52.3637093,18.1582944 53.0546647,16.4032589" id="Fill-27" fill="#3C3C3B"></path>
                            <path d="M39.2474956,7.53073719 C39.2705274,5.63842809 40.1601325,4.11661009 41.2339924,4.13137069 C42.3078523,4.14465523 43.1585911,5.6900902 43.1341198,7.58239929 C43.1110879,9.47323233 42.1696612,15.1058778 41.0972408,15.0925933 C40.0233809,15.0778327 39.2244637,9.42304629 39.2474956,7.53073719" id="Fill-29" fill="#3C3C3B"></path>
                            <path d="M78.4098638,28.3288536 C80.1214179,27.6203447 81.8329721,27.8742271 82.2360294,28.8956607 C82.6362077,29.9156182 81.5753033,31.3178754 79.8651886,32.0249082 C78.1536345,32.7334171 72.7238765,34.0175894 72.3208192,32.9976318 C71.9206409,31.9761982 76.6983097,29.0373625 78.4098638,28.3288536" id="Fill-31" fill="#3C3C3B"></path>
                            <path d="M63.949325,29.3203561 C65.6608791,28.6118472 67.3724333,28.8657295 67.7740511,29.8871632 C68.1771084,30.9071207 67.1147645,32.3093778 65.4046498,33.0164106 C63.6930957,33.7249195 58.2633377,35.0090918 57.8617199,33.9891343 C57.4586626,32.9677007 62.2377709,30.0288649 63.949325,29.3203561" id="Fill-33" fill="#3C3C3B"></path>
                            <path d="M78.4098638,54.6229849 C80.1214179,55.3314937 81.8329721,55.0776114 82.2360294,54.0561778 C82.6362077,53.0362202 81.5753033,51.6339631 79.8651886,50.9269303 C78.1536345,50.2184214 72.7238765,48.9342491 72.3208192,49.9542066 C71.9206409,50.9756402 76.6983097,53.914476 78.4098638,54.6229849" id="Fill-35" fill="#3C3C3B"></path>
                            <path d="M65.0083373,58.2033732 C66.7198914,58.911882 68.4314456,58.6579997 68.8330634,57.6365661 C69.2361207,56.6166085 68.1737768,55.2143514 66.4636621,54.5073186 C64.752108,53.7988097 59.32235,52.5146374 58.9207322,53.5345949 C58.5176749,54.5560286 63.2967832,57.4948643 65.0083373,58.2033732" id="Fill-37" fill="#3C3C3B"></path>
                            <path d="M73.4747598,39.2475079 C75.3201866,39.2711249 76.8043012,40.18333 76.7899063,41.2844709 C76.7769509,42.3856118 75.2698044,43.2579633 73.4243777,43.2328703 C71.5803904,43.2092533 66.0872949,42.24391 66.1002503,41.1442452 C66.1146452,40.0431043 71.6293331,39.223891 73.4747598,39.2475079" id="Fill-39" fill="#3C3C3B"></path>
                            <path d="M3.91103678,28.3305728 C2.19948264,27.622064 0.487928506,27.8759463 0.0848711814,28.8973799 C-0.316746652,29.9173375 0.745597295,31.3195946 2.45571194,32.0266274 C4.16726608,32.7351363 9.59702403,34.0193086 9.99864186,32.9993511 C10.4002597,31.9779174 5.62259092,29.0390817 3.91103678,28.3305728" id="Fill-41" fill="#3C3C3B"></path>
                            <path d="M18.3691018,29.3203561 C16.6575477,28.6118472 14.9459936,28.8657295 14.5443757,29.8871632 C14.1427579,30.9071207 15.2036624,32.3093778 16.913777,33.0164106 C18.6253311,33.7249195 24.0550891,35.0090918 24.4581464,33.9891343 C24.8597643,32.9677007 20.080656,30.0288649 18.3691018,29.3203561" id="Fill-43" fill="#3C3C3B"></path>
                            <path d="M4.48941377,54.6229849 C2.77785963,55.3314937 1.0663055,55.0776114 0.663248174,54.0561778 C0.26163034,53.0362202 1.32397429,51.6339631 3.03408893,50.9269303 C4.74564307,50.2184214 10.175401,48.9342491 10.5770189,49.9542066 C10.9786367,50.9756402 6.20096791,53.914476 4.48941377,54.6229849" id="Fill-45" fill="#3C3C3B"></path>
                            <path d="M16.3840775,58.2033732 C14.6725234,58.911882 12.9609692,58.6579997 12.5593514,57.6365661 C12.1577336,56.6166085 13.218638,55.2143514 14.9287527,54.5073186 C16.6403068,53.7988097 22.0700648,52.5146374 22.4731221,53.5345949 C22.8747399,54.5560286 18.0956317,57.4948643 16.3840775,58.2033732" id="Fill-47" fill="#3C3C3B"></path>
                            <path d="M7.44651454,39.2475079 C5.60108779,39.2711249 4.11697315,40.18333 4.13136805,41.2844709 C4.14432346,42.3856118 5.65146996,43.2579633 7.49689671,43.2328703 C9.34088396,43.2092533 14.8339795,42.24391 14.8210241,41.1442452 C14.8066292,40.0431043 9.29194129,39.223891 7.44651454,39.2475079" id="Fill-49" fill="#3C3C3B"></path>
                            <path d="M15.6294966,69.6930253 C14.3886559,71.0938064 14.0273438,72.828177 14.823382,73.5691592 C15.6179807,74.3086653 17.2676367,73.7728555 18.507038,72.3720744 C19.7478788,70.9727694 22.803917,66.1932867 22.0093183,65.4537806 C21.2147195,64.7127984 16.8703374,68.2922442 15.6294966,69.6930253" id="Fill-51" fill="#3C3C3B"></path>
                            <path d="M65.4059246,69.6930253 C66.6467653,71.0938064 67.0080774,72.828177 66.2134787,73.5691592 C65.4174405,74.3086653 63.7677844,73.7728555 62.5283832,72.3720744 C61.2875424,70.9727694 58.2315042,66.1932867 59.0261029,65.4537806 C59.8207016,64.7127984 64.1650838,68.2922442 65.4059246,69.6930253" id="Fill-53" fill="#3C3C3B"></path>
                            <path d="M28.5512265,64.105894 C27.8602711,65.8609295 28.1078635,67.615965 29.1039909,68.0277858 C30.0986788,68.4396065 31.4661947,67.3517502 32.1557106,65.5981908 C32.846666,63.8431553 34.0990227,58.2754564 33.1043348,57.8621596 C32.1082074,57.4503388 29.2421819,62.3508585 28.5512265,64.105894" id="Fill-57" fill="#3C3C3B"></path>
                            <path d="M53.0546647,64.105894 C53.7456201,65.8609295 53.4980278,67.615965 52.5019004,68.0277858 C51.5072125,68.4396065 50.1396966,67.3517502 49.4501806,65.5981908 C48.7592252,63.8431553 47.5068685,58.2754564 48.5015564,57.8621596 C49.4976838,57.4503388 52.3637093,62.3508585 53.0546647,64.105894" id="Fill-61" fill="#3C3C3B"></path>
                            <path d="M39.2474956,73.662107 C39.2705274,75.5544161 40.1601325,77.0762341 41.2339924,77.0614735 C42.3078523,77.0481889 43.1585911,75.502754 43.1341198,73.6104449 C43.1110879,71.7196118 42.1696612,66.0869663 41.0972408,66.1002509 C40.0233809,66.1150115 39.2244637,71.7697979 39.2474956,73.662107" id="Fill-63" fill="#3C3C3B"></path>
                        </g>
                    </g>
                </g>
            </g>
        </g>
    </g>
</svg>