<?xml version="1.0" encoding="UTF-8" standalone="no"?>
<svg width="70px" height="140px" viewBox="0 0 70 140" version="1.1" xmlns="http://www.w3.org/2000/svg" xmlns:xlink="http://www.w3.org/1999/xlink">
    <!-- Generator: Sketch 41 (35326) - http://www.bohemiancoding.com/sketch -->
    <title>Icon App</title>
    <desc>Created with Sketch.</desc>
    <defs>
        <polygon id="path-1" points="0 139.749933 69.725885 139.749933 69.725885 0 0 0"></polygon>
    </defs>
    <g id="Welcome" stroke="none" stroke-width="1" fill="none" fill-rule="evenodd">
        <g id="Desktop-HD" transform="translate(-686.000000, -2262.000000)">
            <g id="Logo" transform="translate(577.000000, 2262.000000)">
                <g id="Icon-App" transform="translate(109.000000, 0.000000)">
                    <path d="M11.8842965,125.475764 C9.36119912,125.475764 7.07473894,123.740263 6.46518142,121.161644 C5.75217257,118.146499 7.60252655,115.119817 10.597969,114.402356 C17.3247832,112.79033 21.513323,110.376343 23.4027035,107.020708 C25.513854,103.272512 25.1982345,97.3834699 22.4100044,88.4892606 C21.4832788,85.5333586 23.1124823,82.3803964 26.0487655,81.4474788 C28.9850487,80.5145612 32.1164646,82.1552739 33.0435,85.1111759 C35.6266858,93.3515323 37.967969,103.917323 33.102969,112.556477 C29.6020398,118.773225 23.0852257,122.948904 13.1799159,125.322356 C12.7456681,125.426499 12.3114204,125.475764 11.8842965,125.475764 L11.8842965,125.475764 Z" id="Fill-1" fill="#003764"></path>
                    <path d="M13.2375575,124.284018 C12.7413628,123.946022 10.3799469,123.065488 8.55592035,125.787537 L9.32746903,126.311367 C9.63999115,125.845532 11.4479115,125.492258 12.1209646,125.949675 C12.5775133,126.259608 13.198531,126.139563 13.5073363,125.678717 C13.8145929,125.218806 13.6953451,124.594575 13.2375575,124.284018" id="Fill-3" fill="#0055B8"></path>
                    <path d="M10.175615,126.122539 C9.47778319,130.857595 5.09999558,134.125924 0.39729646,133.423742 L3.44942035,112.709354 L11.9646416,113.981514 L10.175615,126.122539 Z" id="Fill-5" fill="#00B3E3"></path>
                    <path d="M7.45332743,131.025308 C6.22244248,129.191588 4.2689469,127.859874 1.92332743,127.509094 C1.69536283,127.476043 1.4689469,127.457958 1.24284071,127.443303 L0.397265487,133.188292 C3.05571681,133.585531 5.60854867,132.712791 7.45332743,131.025308" id="Fill-7" fill="#FFFFFF"></path>
                    <path d="M1.24138496,134.281826 C1.6824469,134.347617 2.09873009,134.037684 2.16408407,133.593051 L5.14280088,113.376303 C5.20877434,112.931047 4.90027876,112.513541 4.45890708,112.447751 L3.91036726,112.365434 C3.46806637,112.299644 3.05364159,112.609577 2.98735841,113.054209 L0.00895132743,133.271581 C-0.0567123894,133.71559 0.251473451,134.133719 0.692845133,134.200134 L1.24138496,134.281826 Z" id="Fill-9" fill="#0055B8"></path>
                    <path d="M13.8703451,79.9268419 C11.768177,80.3343697 9.63968142,79.1217639 8.9430885,77.0220757 C5.77481416,67.473078 6.4590177,59.4771759 10.9768053,53.2563742 C17.3551681,44.4737906 29.1721593,42.8277773 31.988885,42.8670646 C34.3837522,42.9010512 36.2969823,44.8825657 36.263531,47.2934343 C36.2294602,49.7039911 34.2614071,51.6303163 31.8668496,51.5966414 C30.4916283,51.5773096 22.0866726,52.7506281 17.9780442,58.4089354 C15.2149027,62.2135679 14.942646,67.5454165 17.168708,74.2560624 C17.9275575,76.5425212 16.7013186,79.0157506 14.4297257,79.7793586 C14.243885,79.8417194 14.0574248,79.8909844 13.8703451,79.9268419" id="Fill-11" fill="#FFCBB0"></path>
                    <path d="M31.9889159,42.8670334 C29.7901106,42.8364766 22.1055973,43.8330022 15.8059071,48.4505078 L19.6463053,56.5402628 C24.0262611,52.4843163 30.6586062,51.5797728 31.8665708,51.5966102 C34.2614381,51.6302851 36.2291814,49.7039599 36.2635619,47.2934031 C36.2970133,44.8825345 34.3834735,42.90102 31.9889159,42.8670334" id="Fill-13" fill="#FFFFFF"></path>
                    <mask id="mask-2" fill="white">
                        <use xlink:href="#path-1"></use>
                    </mask>
                    <g id="Clip-16"></g>
                    <polygon id="Fill-15" fill="#FFCBB0" mask="url(#mask-2)" points="28.6151327 41.9859688 34.6626991 41.9859688 34.6626991 35.8973719 28.6151327 35.8973719"></polygon>
                    <path d="M31.6368097,39.9455546 C24.2961018,39.9455546 18.3448628,45.936245 18.3448628,53.326 L18.3250398,53.326 L18.076323,79.8854655 L45.2010133,79.8854655 L44.9287566,53.326 C44.9287566,45.936245 38.977208,39.9455546 31.6368097,39.9455546" id="Fill-17" fill="#8B2E87" mask="url(#mask-2)"></path>
                    <path d="M18.0762611,79.8854343 L18.0762611,89.6982183 C18.0762611,91.1462361 19.0884735,92.3192428 20.3363938,92.3192428 L42.9411283,92.3192428 C44.1896681,92.3192428 45.2009513,91.1462361 45.2009513,89.6982183 L45.2009513,79.8854343 L18.0762611,79.8854343 Z" id="Fill-18" fill="#003764" mask="url(#mask-2)"></path>
                    <path d="M52.1924336,68.3529577 C49.4289823,68.3529577 46.765885,67.8085479 44.2136726,66.7178575 C34.2659292,62.4670334 29.9807522,51.2579911 29.3780088,48.4888597 C28.8650885,46.1341158 30.3459292,43.8064989 32.685354,43.2904633 C35.0232301,42.775363 37.3366372,44.264539 37.8489381,46.6195947 C38.1438053,47.9725122 41.1934513,55.9431581 47.6021681,58.6814209 C51.9118142,60.5232472 57.1311504,59.5750512 63.1149115,55.8642717 C65.1538938,54.5995947 67.8250442,55.2387929 69.080708,57.2910869 C70.3373009,59.3436927 69.7026549,62.0330022 67.6633628,63.2976793 C62.2337168,66.6648508 57.0574336,68.3529577 52.1924336,68.3529577" id="Fill-19" fill="#FFCBB0" mask="url(#mask-2)"></path>
                    <path d="M37.8490619,46.6196882 C37.3367611,44.2646325 35.023354,42.7751448 32.6851681,43.290245 C30.3457434,43.8065924 28.8649027,46.1338976 29.377823,48.4889532 C29.5859646,49.4446325 30.233,51.4061915 31.3997699,53.7391091 C33.1915841,52.918441 36.9647699,51.2309577 39.3110088,50.1842316 C38.4353894,48.4973719 37.9571593,47.1145212 37.8490619,46.6196882" id="Fill-20" fill="#FFFFFF" mask="url(#mask-2)"></path>
                    <path d="M48.7079204,20.3622361 C48.7079204,10.8721693 41.065531,3.17902895 31.6387611,3.17902895 C22.2116814,3.17902895 14.569292,10.8721693 14.569292,20.3622361 C14.569292,29.8523029 22.2116814,37.545755 31.6387611,37.545755 C41.065531,37.545755 48.7079204,29.8523029 48.7079204,20.3622361" id="Fill-21" fill="#FFCBB0" mask="url(#mask-2)"></path>
                    <path d="M49.2003363,20.136147 C49.2003363,19.3020713 48.5288319,18.6257684 47.6999823,18.6257684 C46.8711327,18.6257684 46.1996283,19.3020713 46.1996283,20.136147 C46.1996283,20.9702227 46.8711327,21.6468374 47.6999823,21.6468374 C48.5288319,21.6468374 49.2003363,20.9702227 49.2003363,20.136147" id="Fill-22" fill="#FF9B9E" mask="url(#mask-2)"></path>
                    <path d="M49.2003363,23.157029 C49.2003363,22.3229532 48.5288319,21.6466503 47.6999823,21.6466503 C46.8711327,21.6466503 46.1996283,22.3229532 46.1996283,23.157029 C46.1996283,23.9911047 46.8711327,24.6674076 47.6999823,24.6674076 C48.5288319,24.6674076 49.2003363,23.9911047 49.2003363,23.157029" id="Fill-23" fill="#FF9B9E" mask="url(#mask-2)"></path>
                    <polygon id="Fill-24" fill="#FF9B9E" mask="url(#mask-2)" points="46.1996903 23.1567483 49.2003982 23.1567483 49.2003982 20.1359911 46.1996903 20.1359911"></polygon>
                    <path d="M40.6923319,27.1013185 C40.6923319,29.3821648 42.2168451,31.3003831 44.294854,31.8912517 C45.5585708,30.4862628 46.5940133,28.8698708 47.3438805,27.1013185 L40.6923319,27.1013185 Z" id="Fill-25" fill="#BC7267" mask="url(#mask-2)"></path>
                    <path d="M42.8786239,29.8257996 C42.4369425,29.8257996 42.005792,29.8700757 41.587031,29.9486503 C42.2331372,30.8768909 43.1830929,31.57502 44.2947301,31.8911893 C44.7342434,31.4025924 45.1440221,30.8865568 45.5262345,30.3493185 C44.7085354,30.0138174 43.8158805,29.8257996 42.8786239,29.8257996" id="Fill-26" fill="#FF9BB1" mask="url(#mask-2)"></path>
                    <path d="M47.7000752,0.000124721604 C43.8085708,2.49455679 34.6627301,1.09143875 29.7937035,1.7253363 C16.0507832,3.5141559 14.0780841,15.2785212 14.0780841,19.3319733 C14.0836593,19.3322851 14.089854,19.3322851 14.0954292,19.3329087 C13.908969,23.8384766 15.2696327,30.4652472 19.648969,33.9867617 C19.648969,33.9867617 27.2033938,31.1393675 29.2900752,20.0391448 C30.3066239,20.1582539 31.4442788,19.6500134 32.3592345,17.6744232 C32.5930841,17.1696125 32.7479513,16.712196 32.8414912,16.2971849 C38.1528186,15.0368731 43.3191903,13.4959376 46.4927301,11.8920178 C49.9871549,9.90676169 49.5783053,1.40324276 47.7000752,0.000124721604" id="Fill-27" fill="#2D333A" mask="url(#mask-2)"></path>
                    <path d="M31.939885,20.8454699 C31.939885,19.0940668 32.463646,17.6744232 30.7238673,17.6744232 C28.9843982,17.6744232 27.5738673,19.0940668 27.5738673,20.8454699 C27.5738673,22.5968731 28.9843982,24.0165167 30.7238673,24.0165167 C32.463646,24.0165167 31.939885,22.5968731 31.939885,20.8454699" id="Fill-28" fill="#E3AF94" mask="url(#mask-2)"></path>
                    <path d="M34.662792,13.5957149 C34.9663319,14.3231537 33.6735,20.6000802 32.7981903,22.3025301 C31.9399159,21.5011938 30.479208,18.1689443 31.6385442,14.3231537 L34.662792,13.5957149 Z" id="Fill-29" fill="#2D333A" mask="url(#mask-2)"></path>
                    <path d="M42.9103717,18.6256748 C42.9103717,17.8901292 42.3178496,17.2936481 41.5868761,17.2936481 C40.8562124,17.2936481 40.2636903,17.8901292 40.2636903,18.6256748 C40.2636903,19.3612205 40.8562124,19.9577016 41.5868761,19.9577016 C42.3178496,19.9577016 42.9103717,19.3612205 42.9103717,18.6256748" id="Fill-30" fill="#1E252B" mask="url(#mask-2)"></path>
                    <path d="M48.3358673,130.515203 C47.4679912,130.515203 46.5877257,130.310659 45.7650708,129.879434 C43.0341416,128.44763 41.9733009,125.058009 43.3956018,122.309145 C46.8330354,115.664913 47.4444513,109.587853 45.2125044,104.248209 C42.9427699,98.8165835 37.7575044,94.4054922 31.3419735,92.448922 C28.3948496,91.5499911 26.7297168,88.4166726 27.6226814,85.4504811 C28.5153363,82.4833541 31.6287876,80.806784 34.5746726,81.7063385 C44.1296726,84.6204588 51.9486106,91.419657 55.4907345,99.8951136 C57.9515752,105.784156 59.5668407,115.352486 53.285115,127.494134 C52.291177,129.414846 50.3479027,130.515203 48.3358673,130.515203" id="Fill-31" fill="#003764" mask="url(#mask-2)"></path>
                    <path d="M50.2124248,121.241465 C50.1560531,121.241465 50.0990619,121.231176 50.0436195,121.209038 C49.8045044,121.115497 49.6864956,120.844539 49.7797257,120.603826 C52.4099912,113.816788 52.3090177,107.140129 49.4879558,101.296298 C46.4085752,94.9164766 40.1785752,89.7682806 32.8236195,87.5251626 C32.578,87.4503296 32.4392389,87.1890379 32.5135752,86.9417773 C32.5882212,86.6945167 32.8496372,86.5551403 33.0930885,86.6299733 C40.6914956,88.9473007 47.1330442,94.2769666 50.3236195,100.887835 C53.2608319,106.972067 53.3720265,113.907523 50.6451239,120.943693 C50.5735752,121.128281 50.3982655,121.241465 50.2124248,121.241465" id="Fill-32" fill="#00B3E3" mask="url(#mask-2)"></path>
                    <path d="M55.3529956,124.119572 C55.0609159,123.649372 54.4457832,123.505007 53.9774646,123.799973 C53.4688805,124.118325 51.7080398,125.930218 53.4348097,128.716811 L54.2240133,128.220419 C53.9285265,127.74367 54.3445,125.93739 55.033969,125.504918 C55.5013584,125.21151 55.6450752,124.591644 55.3529956,124.119572" id="Fill-33" fill="#0055B8" mask="url(#mask-2)"></path>
                    <path d="M54.3986726,127.363675 C58.4097345,129.934187 59.5913717,135.290356 57.0388496,139.32853 L39.4902212,128.08363 L44.1130088,120.773073 L54.3986726,127.363675 Z" id="Fill-34" fill="#00B3E3" mask="url(#mask-2)"></path>
                    <path d="M57.6364835,131.960814 C55.4720587,132.345505 53.4680764,133.598711 52.1944481,135.612258 C52.070864,135.808344 51.962457,136.008483 51.8571472,136.210804 L56.7252446,139.328855 C58.1682977,137.046586 58.416395,134.343776 57.6364835,131.960814" id="Fill-35" fill="#FFFFFF" mask="url(#mask-2)"></path>
                    <path d="M58.1608628,138.901047 C58.4002876,138.522829 58.2884735,138.013653 57.912146,137.772628 L40.7847566,126.798686 C40.4078097,126.556102 39.9032522,126.669287 39.663208,127.048753 L39.3652434,127.519577 C39.1258186,127.899042 39.2379425,128.406971 39.6142699,128.648619 L56.741969,139.622561 C57.1186062,139.864521 57.6234735,139.751336 57.863208,139.372494 L58.1608628,138.901047 Z" id="Fill-36" fill="#0055B8" mask="url(#mask-2)"></path>
                </g>
            </g>
        </g>
    </g>
</svg>