<?xml version="1.0" encoding="UTF-8"?>
<svg width="52px" height="55px" viewBox="0 0 52 55" version="1.1" xmlns="http://www.w3.org/2000/svg" xmlns:xlink="http://www.w3.org/1999/xlink">
    <!-- Generator: Sketch 44.1 (41455) - http://www.bohemiancoding.com/sketch -->
    <title>selected_cup</title>
    <desc>Created with Sketch.</desc>
    <defs></defs>
    <g id="Page-1" stroke="none" stroke-width="1" fill="none" fill-rule="evenodd">
        <g id="Prizes-Page" transform="translate(-1819.000000, -243.000000)" fill="#FCD872">
            <g id="body">
                <g id="sidebar" transform="translate(1770.000000, 0.000000)">
                    <g id="פרסים" transform="translate(0.000000, 180.000000)">
                        <g id="selected_cup" transform="translate(49.000000, 63.000000)">
                            <path d="M41.8765988,53.2072484 C42.2439201,54.193252 41.7630123,55 40.8081866,55 L11.1918134,55 C10.2369877,55 9.7560799,54.193252 10.1234012,53.2072484 L13.2840771,46.7927516 C13.6513984,45.806748 14.7330915,45 15.6879172,45 L36.3122575,45 C37.2670833,45 38.3487764,45.806748 38.7160977,46.7927516 L41.8765988,53.2072484 L41.8765988,53.2072484 Z" id="Shape"></path>
                            <path d="M44.0231844,8.21268848 C43.2997151,8.21268848 43.5714529,7.35413203 43.5714529,7.35413203 L44.8999103,2.45753569 C45.266538,1.10583777 44.4380433,0 43.0589082,0 L28.6094441,0 L23.390155,0 L8.94069096,0 C7.56138104,0 6.73306114,1.10583777 7.09968881,2.45753569 L8.42814617,7.35413203 C8.42814617,7.35413203 8.69970928,8.21268848 7.97624,8.21268848 L1.16986196,8.21268848 C0.321270936,8.21268848 -0.178691773,8.89022507 0.0593191358,9.71858194 L5.06523727,29.9420009 C5.30307343,30.7701801 6.19220669,31.448072 7.04097246,31.448072 L13.3779692,31.448072 C14.149495,31.448072 14.276539,32.0994948 14.276539,32.0994948 L14.6403707,33.4407117 C15.0835393,35.4079483 22.1485489,38.7416272 24.1588848,39.6195469 C25.3286682,40.1304529 26.6686591,40.1231694 27.8415881,39.6195469 C30.057606,38.6680823 36.6404774,35.6040679 37.3601022,33.4407117 L37.7239338,32.0994948 C37.7239338,32.0994948 37.8509778,31.448072 38.6225037,31.448072 L44.9593257,31.448072 C45.8080914,31.448072 46.6972247,30.7703578 46.9352356,29.9420009 L51.940979,9.71858194 C52.1782909,8.89022507 51.6783282,8.21268848 50.8295624,8.21268848 L44.0231844,8.21268848 Z M12.3135607,27.5258564 L9.7417497,27.5258564 C8.89298392,27.5258564 8.02202477,26.8431681 7.80655674,26.0085937 L5.52955077,13.6518115 C5.31408274,12.8174147 5.83204481,12.1345488 6.68081058,12.1345488 L9.27830996,12.1345488 C9.76062281,12.1345488 9.87473524,12.6866683 9.87473524,12.6866683 L12.8514444,26.8481422 C12.8514444,26.8481422 13.0560778,27.5258564 12.3135607,27.5258564 L12.3135607,27.5258564 Z M46.4698736,13.6518115 L44.1930424,26.0085937 C43.9773996,26.8431681 43.1066152,27.5258564 42.2578494,27.5258564 L39.6860384,27.5258564 C38.9436961,27.5258564 39.1481548,26.8483198 39.1481548,26.8483198 L42.1248639,12.6868459 C42.1248639,12.6868459 42.2389763,12.1347264 42.7212892,12.1347264 L45.3187885,12.1347264 C46.1673796,12.1345488 46.6855164,12.8174147 46.4698736,13.6518115 L46.4698736,13.6518115 Z" id="Shape"></path>
                        </g>
                    </g>
                </g>
            </g>
        </g>
    </g>
</svg>